<svg width="90" height="90" viewBox="0 0 90 90" fill="none" xmlns="http://www.w3.org/2000/svg">
<path fill-rule="evenodd" clip-rule="evenodd" d="M20.445 11.25H69.5531C74.6325 11.25 78.75 15.3675 78.75 20.445V69.5531C78.75 74.6325 74.6325 78.75 69.555 78.75H20.445C15.3675 78.75 11.25 74.6325 11.25 69.555V20.445C11.25 15.3675 15.3675 11.25 20.445 11.25Z" fill="#212121"/>
<path fill-rule="evenodd" clip-rule="evenodd" d="M54.765 38.6381C57.72 40.7494 61.3407 41.9906 65.25 41.9906V34.47C64.5094 34.47 63.7725 34.3931 63.0488 34.2394V40.1588C59.1394 40.1588 55.5207 38.9156 52.5638 36.8063V52.1513C52.5638 59.8275 46.3369 66.0506 38.6569 66.0506C35.7919 66.0506 33.1275 65.1844 30.915 63.6994C33.4407 66.2794 36.9619 67.8806 40.8582 67.8806C48.5382 67.8806 54.765 61.6575 54.765 53.9813V38.6381ZM57.4819 31.0519C55.9725 29.4038 54.9807 27.2719 54.765 24.915V23.9475H52.6782C53.2032 26.9419 54.9957 29.5013 57.4819 31.0519ZM35.7732 57.81C34.9294 56.7038 34.4738 55.3519 34.4757 53.9606C34.4757 50.4488 37.3238 47.6025 40.8375 47.6025C41.4919 47.6025 42.1425 47.7019 42.7669 47.9006V40.2131C42.0375 40.1138 41.3025 40.0706 40.5657 40.0856V46.0688C39.9413 45.87 39.2907 45.7706 38.6344 45.7706C35.1207 45.7706 32.2725 48.6169 32.2725 52.1288C32.2744 54.6131 33.6975 56.7638 35.7732 57.81Z" fill="#EC407A"/>
<path fill-rule="evenodd" clip-rule="evenodd" d="M52.5638 36.8063C55.5188 38.9175 59.1395 40.1588 63.0488 40.1588V34.2394C60.8663 33.7744 58.9351 32.6344 57.4819 31.05C54.9957 29.4994 53.2051 26.9419 52.6801 23.9475H47.1995V53.9813C47.1863 57.4819 44.3438 60.3169 40.8376 60.3169C38.7713 60.3169 36.9357 59.3325 35.7732 57.8081C33.6976 56.7619 32.2745 54.6113 32.2745 52.1288C32.2745 48.6169 35.1226 45.7706 38.6363 45.7706C39.3095 45.7706 39.9582 45.8756 40.5676 46.0688V40.0875C33.0226 40.2431 26.9551 46.4044 26.9551 53.9831C26.9551 57.7669 28.4663 61.1963 30.9188 63.7013C33.1313 65.1863 35.7957 66.0525 38.6607 66.0525C46.3407 66.0525 52.5676 59.8294 52.5676 52.1531L52.5638 36.8063Z" fill="white"/>
<path fill-rule="evenodd" clip-rule="evenodd" d="M63.0487 34.2413V32.6401C61.08 32.6439 59.1525 32.0926 57.4819 31.0501C58.9594 32.6682 60.9056 33.7838 63.0487 34.2413ZM52.6781 23.9476C52.6275 23.6607 52.59 23.3738 52.5638 23.0832V22.1157H44.9962V52.1513C44.985 55.652 42.1406 58.487 38.6344 58.487C37.605 58.487 36.6338 58.2432 35.7731 57.8082C36.9356 59.3326 38.7713 60.317 40.8375 60.317C44.3438 60.317 47.1863 57.482 47.1994 53.9814V23.9476H52.6781ZM40.5656 40.0876V38.3832C39.9338 38.297 39.2963 38.2538 38.6569 38.2538C30.975 38.2538 24.75 44.477 24.75 52.1532C24.75 56.9664 27.1969 61.2076 30.915 63.7013C28.4625 61.1964 26.9512 57.767 26.9512 53.9832C26.9512 46.4045 33.0206 40.2432 40.5656 40.0876Z" fill="#81D4FA"/>
</svg>
