<svg width="90" height="90" viewBox="0 0 90 90" fill="none" xmlns="http://www.w3.org/2000/svg">
<path d="M78.75 23.3044C76.2694 24.4031 73.6013 25.1362 70.7869 25.4831C73.6481 23.7844 75.8494 21.075 76.8825 17.8744C74.205 19.4437 71.2388 20.5969 68.0831 21.2044C65.5631 18.5325 61.9688 16.875 57.9863 16.875C50.3363 16.875 44.1356 23.0212 44.1356 30.6C44.1356 31.6725 44.2613 32.7169 44.4975 33.7312C32.9888 33.1537 22.7813 27.6825 15.9525 19.38C14.7525 21.4088 14.0775 23.7844 14.0775 26.2913C14.0775 31.0556 16.5169 35.25 20.2369 37.7213C17.9663 37.6519 15.8288 37.02 13.9575 36.0075C13.9575 36.0488 13.9575 36.1106 13.9575 36.1688C13.9575 42.8269 18.7331 48.3713 25.0631 49.6331C23.9063 49.95 22.6838 50.1262 21.4238 50.1262C20.5294 50.1262 19.6575 50.025 18.8138 49.8731C20.5763 55.3144 25.6894 59.2912 31.7475 59.4094C27.0075 63.0844 21.0375 65.2856 14.5463 65.2856C13.425 65.2856 12.3281 65.2219 11.2444 65.0906C17.3775 68.9738 24.66 71.25 32.4769 71.25C57.9488 71.25 71.8838 50.3325 71.8838 32.1863C71.8838 31.5919 71.865 30.9994 71.8369 30.4144C74.5556 28.4944 76.8994 26.0719 78.75 23.3044Z" fill="#03A9F4"/>
</svg>
