<svg width="90" height="90" viewBox="0 0 90 90" fill="none" xmlns="http://www.w3.org/2000/svg">
<path d="M22.8619 36.6656C19.2244 33.4012 13.8807 33.4275 10.9276 36.72C7.97255 40.0125 8.48818 46.1381 12.6638 49.155L22.8619 36.6656ZM67.1382 36.6656C70.7738 33.4012 76.1176 33.4275 79.0726 36.72C82.0257 40.0125 81.5138 46.1381 77.3344 49.155L67.1382 36.6656ZM71.8501 13.0781C70.9883 13.0781 70.1349 13.2479 69.3387 13.5777C68.5425 13.9075 67.8191 14.3909 67.2097 15.0002C66.6003 15.6096 66.1169 16.3331 65.7871 17.1293C65.4573 17.9255 65.2876 18.7788 65.2876 19.6406C65.2876 20.5024 65.4573 21.3558 65.7871 22.152C66.1169 22.9482 66.6003 23.6716 67.2097 24.281C67.8191 24.8904 68.5425 25.3738 69.3387 25.7036C70.1349 26.0334 70.9883 26.2031 71.8501 26.2031C72.7119 26.2031 73.5652 26.0334 74.3614 25.7036C75.1576 25.3738 75.8811 24.8904 76.4904 24.281C77.0998 23.6716 77.5832 22.9482 77.913 22.152C78.2428 21.3558 78.4126 20.5024 78.4126 19.6406C78.4126 18.7788 78.2428 17.9255 77.913 17.1293C77.5832 16.3331 77.0998 15.6096 76.4904 15.0002C75.8811 14.3909 75.1576 13.9075 74.3614 13.5777C73.5652 13.2479 72.7119 13.0781 71.8501 13.0781Z" fill="white"/>
<path d="M45.1594 29.3718C40.7063 29.3718 36.2969 29.9997 32.1828 31.2196C28.0687 32.4394 24.3306 34.2274 21.1818 36.4814C18.033 38.7355 15.5353 41.4114 13.8312 44.3564C12.1271 47.3014 11.25 50.4579 11.25 53.6456C11.25 56.8332 12.1271 59.9897 13.8312 62.9347C15.5353 65.8798 18.033 68.5557 21.1818 70.8097C24.3306 73.0637 28.0687 74.8517 32.1828 76.0716C36.2969 77.2915 40.7063 77.9193 45.1594 77.9193C49.6124 77.9193 54.0219 77.2915 58.1359 76.0716C62.25 74.8517 65.9882 73.0637 69.1369 70.8097C72.2857 68.5557 74.7835 65.8798 76.4876 62.9347C78.1917 59.9897 79.0688 56.8332 79.0688 53.6456C79.0688 50.4579 78.1917 47.3014 76.4876 44.3564C74.7835 41.4114 72.2857 38.7355 69.1369 36.4814C65.9882 34.2274 62.25 32.4394 58.1359 31.2196C54.0219 29.9997 49.6124 29.3718 45.1594 29.3718Z" fill="white"/>
<path d="M56.9345 44.0737C55.5003 44.0737 54.1249 44.6434 53.1108 45.6575C52.0967 46.6717 51.527 48.0471 51.527 49.4812C51.527 50.9154 52.0967 52.2908 53.1108 53.3049C54.1249 54.319 55.5003 54.8887 56.9345 54.8887C58.3686 54.8887 59.744 54.319 60.7581 53.3049C61.7722 52.2908 62.342 50.9154 62.342 49.4812C62.342 48.0471 61.7722 46.6717 60.7581 45.6575C59.744 44.6434 58.3686 44.0737 56.9345 44.0737ZM33.0657 44.0737C31.6315 44.0737 30.2561 44.6434 29.242 45.6575C28.2279 46.6717 27.6582 48.0471 27.6582 49.4812C27.6582 50.9154 28.2279 52.2908 29.242 53.3049C30.2561 54.319 31.6315 54.8887 33.0657 54.8887C34.4999 54.8887 35.8753 54.319 36.8894 53.3049C37.9035 52.2908 38.4732 50.9154 38.4732 49.4812C38.4732 48.0471 37.9035 46.6717 36.8894 45.6575C35.8753 44.6434 34.4999 44.0737 33.0657 44.0737Z" fill="#D84315"/>
<path d="M45.0038 65.4414C38.9063 65.4414 33.4913 64.0445 30 61.8751C31.92 65.7076 37.8675 69.3751 45.0038 69.3751C52.1325 69.3751 58.0838 65.7076 60 61.8751C56.5182 64.0445 51.1013 65.4414 45.0038 65.4414ZM78.4313 50.6739L76.2375 47.6345C77.7957 46.5095 78.8119 44.717 79.0275 42.7164C79.2244 40.8789 78.7332 39.1482 77.6757 37.9707C76.605 36.7764 75.0675 36.1145 73.35 36.107C71.6119 36.1314 69.7988 36.7914 68.3888 38.0589L65.8838 35.2689C67.9894 33.3789 70.6557 32.4132 73.3669 32.357C76.1569 32.3701 78.6788 33.4745 80.4657 35.4657C82.2319 37.4345 83.0663 40.2226 82.755 43.1176C82.4269 46.1739 80.8519 48.9301 78.4313 50.6739ZM11.5669 50.6739C9.14817 48.9264 7.57129 46.172 7.24317 43.1157C6.93192 40.2226 7.76629 37.4345 9.53254 35.4676C11.3194 33.4764 13.8394 32.372 16.6294 32.3589C16.6463 32.3589 16.6632 32.3589 16.68 32.3589C19.3819 32.3589 22.0219 33.392 24.1144 35.2707L21.6094 38.0607C20.1975 36.7932 18.4425 36.1764 16.6482 36.1089C14.9307 36.1164 13.395 36.7782 12.3244 37.9726C11.2688 39.1501 10.7757 40.8789 10.9725 42.7164C11.1882 44.717 12.2044 46.5095 13.7625 47.6364L11.5669 50.6739ZM46.875 31.5751H43.125C43.125 26.1657 43.125 11.7976 52.4607 11.7976C56.4994 11.7976 58.4475 14.0682 59.8707 15.7276C61.05 17.1039 61.6725 17.7639 62.9007 17.7639H65.4694V21.5139H62.9007C59.8932 21.5139 58.3013 19.6576 57.0225 18.167C55.7663 16.7026 54.7763 15.5457 52.4588 15.5457C48.7032 15.5476 46.875 20.7901 46.875 31.5751Z" fill="#37474F"/>
<path d="M45.1594 31.7812C62.8237 31.7812 77.1937 41.5894 77.1937 53.6456C77.1937 65.7037 62.8237 75.5119 45.1594 75.5119C27.495 75.5119 13.125 65.7037 13.125 53.6456C13.125 41.5894 27.495 31.7812 45.1594 31.7812ZM45.1594 28.0312C25.395 28.0312 9.375 39.4987 9.375 53.6456C9.375 67.7944 25.3969 79.2619 45.1594 79.2619C64.9219 79.2619 80.9437 67.7944 80.9437 53.6456C80.9437 39.4987 64.9219 28.0312 45.1594 28.0312ZM71.85 14.9531C74.4356 14.9531 76.5375 17.0569 76.5375 19.6406C76.5375 22.2244 74.4356 24.3281 71.85 24.3281C69.2644 24.3281 67.1625 22.2244 67.1625 19.6406C67.1625 17.0569 69.2644 14.9531 71.85 14.9531ZM71.85 11.2031C67.1925 11.2031 63.4125 14.9813 63.4125 19.6406C63.4125 24.3 67.1925 28.0781 71.85 28.0781C76.5112 28.0781 80.2875 24.3 80.2875 19.6406C80.2875 14.9813 76.5131 11.2031 71.85 11.2031Z" fill="#37474F"/>
</svg>
