<svg width="90" height="90" viewBox="0 0 90 90" fill="none" xmlns="http://www.w3.org/2000/svg">
<path d="M45 9.375C35.5517 9.375 26.4903 13.1283 19.8093 19.8093C13.1283 26.4903 9.375 35.5517 9.375 45C9.375 54.4483 13.1283 63.5097 19.8093 70.1907C26.4903 76.8717 35.5517 80.625 45 80.625C54.4483 80.625 63.5097 76.8717 70.1907 70.1907C76.8717 63.5097 80.625 54.4483 80.625 45C80.625 35.5517 76.8717 26.4903 70.1907 19.8093C63.5097 13.1283 54.4483 9.375 45 9.375Z" fill="#039BE5"/>
<path d="M49.8226 54.4426H59.0419L60.4894 45.077H49.8207V39.9582C49.8207 36.0676 51.0919 32.6176 54.7313 32.6176H60.5794V24.4445C59.5519 24.3057 57.3788 24.002 53.2726 24.002C44.6982 24.002 39.6713 28.5301 39.6713 38.8463V45.077H30.8569V54.4426H39.6713V80.1845C41.4169 80.447 43.1851 80.6251 45.0001 80.6251C46.6407 80.6251 48.2419 80.4751 49.8226 80.2613V54.4426Z" fill="white"/>
</svg>
