<svg width="90" height="90" viewBox="0 0 90 90" fill="none" xmlns="http://www.w3.org/2000/svg">
<path d="M78.1312 25.275C77.3812 25.7625 76.3125 26.2125 75.8625 26.7188C75.6937 26.8875 75.6 27.075 75.6375 27.2625V29.1937L75.075 31.0875L74.5125 32.9625L73.8937 35.025L72.6188 39.2438L71.3812 43.4062L70.4437 46.5375C70.4437 47.025 70.425 47.5125 70.3875 47.9813C70.2563 49.7812 69.8813 51.5062 69.2813 53.1188C68.925 54.1125 68.4938 55.0688 67.9688 55.9688C67.7812 56.325 67.5563 56.6813 67.3312 57.0187C66.5812 58.2 65.6813 59.2875 64.6875 60.2438C63.9188 61.0125 63.075 61.725 62.1563 62.325C62.1563 62.325 62.1562 62.325 62.1375 62.325C61.9875 62.4563 61.8187 62.5687 61.6312 62.6625C61.05 63.0562 60.4312 63.3938 59.7938 63.6938C59.3625 63.9188 58.9313 64.1062 58.4813 64.275C58.3875 64.3312 58.275 64.3687 58.1813 64.4062C57.1125 64.9125 55.875 65.25 54.6375 65.4187C54.5625 65.4375 54.5063 65.4375 54.4313 65.4562C53.6813 65.5875 52.95 65.7 52.2 65.7562C51.8625 65.7938 51.5063 65.8125 51.1688 65.8125L49.8375 65.7375L43.425 65.4C43.425 65.3813 43.4062 65.4 43.4062 65.4L40.1813 65.2313C39.9375 65.2313 39.675 65.2312 39.4313 65.2125C38.4188 65.175 37.4438 65.0625 36.4688 64.8563C36.45 64.8563 36.45 64.8563 36.45 64.8563C34.6688 64.5187 32.9625 63.9188 31.3687 63.1125C30.4875 62.6625 29.625 62.1562 28.8188 61.575C28.4813 61.3312 28.1625 61.0687 27.8438 60.7875C26.9438 60.0375 26.1375 59.2313 25.3875 58.4062C25.275 58.2938 25.1813 58.1812 25.0875 58.0687C24.975 57.9562 24.8625 57.825 24.7688 57.7125C24.0563 56.8125 23.4563 55.8938 22.9688 54.9188C22.5188 54.0563 22.1625 53.1375 21.8813 52.125C21.7688 51.7687 21.675 51.4312 21.6 51.0562C21.5813 51.0375 21.5625 51 21.5625 50.9625C21.375 50.1938 21.2063 49.3875 21.1125 48.5812C21 47.9625 20.9438 47.3438 20.9438 46.7062C20.9063 46.4625 20.9062 46.2 20.9062 45.9562L24.4875 40.425L27.9938 35.025L29.5875 32.5688L31.0312 30.3563L31.5187 29.5875V27.6562C31.5562 27.225 31.575 26.775 31.5563 26.3625C31.5375 25.05 31.275 23.775 30.8438 22.5562C30.4313 21.2625 29.85 20.0438 29.25 18.9188C28.5375 17.625 27.7875 16.4625 27.1688 15.4125C26.25 13.875 25.6125 12.6188 25.7813 11.7375C27.1313 11.4188 28.5563 11.25 30 11.25H60C67.8375 11.25 74.5875 16.125 77.3813 22.9875C77.6813 23.7188 77.9437 24.4875 78.1312 25.275Z" fill="#304FFE"/>
<path d="M78.7501 30V30.5063L76.1626 32.0063L74.5126 32.9625L72.6939 34.0125L69.0564 36.1313L65.4939 38.1938L61.8564 40.2938L60.4126 41.1375C60.4126 42.0375 60.1876 42.8625 59.7751 43.6125C59.1938 44.7 58.2188 45.6 56.9813 46.3688C55.7251 47.1375 54.1876 47.7563 52.4626 48.2062C52.4626 48.2062 52.4626 48.1875 52.4438 48.2062C45.7688 49.9313 36.6563 49.1438 32.2313 45.8438C30.9938 44.925 30.1313 43.8 29.7563 42.5063C29.6438 42.075 29.5876 41.6063 29.5876 41.1375V27.6563C29.6063 27.375 29.4188 27.0938 29.0813 26.8125C28.0688 26.0063 25.6876 25.2375 23.0251 24.4688C20.9438 23.8875 18.7126 23.3063 16.8376 22.7438C15.3563 22.2938 14.1001 21.8438 13.3501 21.4125C13.6876 20.7563 14.0813 20.1 14.4938 19.4813C17.1188 15.6375 21.1313 12.8063 25.7813 11.7375C27.1313 11.4188 28.5563 11.25 30.0001 11.25H50.2501C60.3188 13.0125 69.6001 17.1188 77.3813 22.9875C77.6814 23.7188 77.9438 24.4875 78.1313 25.275C78.4688 26.5125 78.6751 27.7875 78.7314 29.1188C78.7501 29.4 78.7501 29.7 78.7501 30Z" fill="#4928F4"/>
<path d="M78.7501 30V38.2688L78.3376 39.5438L76.9314 43.9125L75.4688 48.4125L74.7001 50.8125L73.9876 53.0438L73.2938 55.1626L72.6188 57.2626L72.2626 58.3688L71.7939 59.8313C71.7939 61.2563 71.7564 62.5126 71.6626 63.5813C71.6439 63.6938 71.6251 63.8063 71.6251 63.9188C71.5126 64.9126 71.3626 65.7563 71.1188 66.4688C71.1001 66.5813 71.0626 66.6938 71.0251 66.7875C70.5376 68.1375 69.8064 69 68.7188 69.5625C68.4564 69.7125 68.1563 69.825 67.8376 69.9375C66.8438 70.275 65.5876 70.4438 64.0501 70.5375C62.9251 70.6125 61.6313 70.6313 60.1688 70.6313H58.8751L56.6438 70.5375L56.2501 70.5188L52.1813 70.3501L48.0563 70.1813L34.4626 69.6188L30.9376 69.4688H30.4501C28.9876 69.45 27.7313 69.3563 26.6438 69.2063C25.0688 68.9626 23.8501 68.55 22.9313 67.9313C21.6188 67.0875 20.8501 65.8501 20.4001 64.125C20.2876 63.7126 20.1938 63.2813 20.1376 62.8125C19.9501 61.725 19.8563 60.4688 19.8001 59.0625C19.8001 58.7813 19.8001 58.5001 19.7813 58.2001C19.7626 58.1813 19.7813 58.1813 19.7813 58.1813V57.0938C19.7626 56.5501 19.7626 55.9875 19.7626 55.4063L19.8563 52.3876L19.9126 50.2313L19.9876 47.7188V47.3625L20.1188 42.75L20.2501 38.1376L20.3813 33.8063L20.4938 29.5501L20.5313 28.425C20.5313 27.8438 18.5626 27.5063 16.3688 27.225C14.6251 27 12.7126 26.7938 11.5688 26.5313C11.6626 26.1 11.7563 25.6688 11.8688 25.2563C12.2063 23.9063 12.7126 22.6313 13.3501 21.4125C13.6876 20.7563 14.0813 20.1 14.4938 19.4813C18.5438 17.7 22.7626 16.3125 27.1688 15.4125C31.0313 14.6063 35.0626 14.175 39.2251 14.175C53.0251 14.175 65.7751 18.8438 75.8626 26.7188C76.8376 27.4688 77.7938 28.275 78.7313 29.1188C78.7501 29.4 78.7501 29.7 78.7501 30Z" fill="#6200EA"/>
<path d="M78.75 34.4438V42.9563L77.7188 44.9438L75.75 48.7875L74.7 50.8126L73.7438 52.6688L73.3313 53.475C73.3313 54.0563 73.3312 54.6188 73.2938 55.1626C73.2938 55.9688 73.2563 56.7375 73.2 57.45C73.125 58.2938 73.0125 59.0625 72.9 59.7751C72.6188 61.2563 72.225 62.5313 71.6625 63.5813C71.5875 63.7125 71.5125 63.8438 71.4375 63.9563C71.2312 64.2938 70.9875 64.6125 70.725 64.9125C70.3875 65.325 70.0125 65.6813 69.5813 65.9813C68.9438 66.4688 68.1937 66.8625 67.3312 67.1625C66.2625 67.5563 65.025 67.8188 63.5625 67.9688C62.6063 68.0625 61.5563 68.1188 60.4125 68.1188L59.625 68.1563L55.725 68.3813H55.7062L51.5625 68.625L47.3438 68.8688L41.5312 69.2063L34.4625 69.6188L33.4312 69.675C32.475 69.675 31.575 69.6188 30.7125 69.5063C30.6187 69.4875 30.5437 69.4688 30.45 69.4688C29.175 69.2625 28.0125 68.925 26.9625 68.4563C25.6875 67.8938 24.5812 67.1438 23.6437 66.2438C22.8187 65.4375 22.1062 64.5188 21.525 63.4875C21.3937 63.2438 21.2625 63.0188 21.15 62.7563C20.5875 61.6501 20.1375 60.4125 19.8 59.0625C19.7438 58.8375 19.6875 58.5938 19.65 58.3501C19.5375 57.9188 19.4438 57.4688 19.3875 57C19.1813 55.8 19.0688 54.5251 19.0125 53.1938V53.175C18.9938 52.6313 18.975 52.1063 18.975 51.5438L18.0563 49.35L17.925 49.0125L17.8125 48.7313L16.4062 45.3751L16.1813 44.8313L14.8312 41.5875L13.3313 37.9688C13.3313 37.9688 13.3312 37.9688 13.3125 37.9688L11.7937 34.3125L11.25 32.9813V30C11.25 28.8188 11.3625 27.6563 11.5688 26.5313C11.6625 26.1 11.7562 25.6688 11.8687 25.2563C13.4625 24.3376 15.1312 23.4938 16.8375 22.7438C20.7375 21 24.9188 19.7063 29.25 18.9188C32.475 18.3375 35.8313 18.0188 39.225 18.0188C52.9313 18.0188 65.3625 22.9875 75.075 31.0875C75.45 31.3875 75.8063 31.6875 76.1625 32.0063C77.0437 32.775 77.9062 33.5813 78.75 34.4438Z" fill="#673AB7"/>
<path d="M78.75 40.0313V49.6688L77.6813 51.9001L75.6562 56.1188L75.6375 56.1751C75.6375 56.9813 75.6 57.7126 75.5438 58.3688C75.3563 60.5251 74.8313 61.8938 73.9688 62.7376C73.35 63.3751 72.5813 63.7313 71.625 63.9188C71.5688 63.9376 71.4937 63.9376 71.4375 63.9563C71.1375 64.0126 70.8187 64.0501 70.4813 64.0501C69.3187 64.1626 67.95 64.0876 66.375 63.9751C66.2063 63.9751 66.0188 63.9563 65.8313 63.9376C64.6875 63.8626 63.4688 63.7876 62.1188 63.7313C61.3875 63.7126 60.6188 63.6939 59.8312 63.6939H59.7937L57.9 63.8438H57.8813L53.625 64.1438L48.7687 64.5188L48.0562 64.5751L42.375 64.9876L39.4313 65.2126L36.525 65.4188C36.0187 65.4188 35.5313 65.4188 35.0438 65.4001C35.0438 65.4001 35.025 65.3813 35.025 65.4001C32.9062 65.3626 31.0125 65.2313 29.325 64.9126C27.7688 64.6501 26.4 64.2376 25.2375 63.6188C24.0375 63.0376 23.0437 62.2126 22.2375 61.1626C21.4687 60.1313 20.9062 58.8376 20.55 57.2813C20.55 57.2626 20.55 57.2626 20.55 57.2626C20.2875 56.0063 20.1375 54.5438 20.1375 52.8938L19.8563 52.3876L18.1875 49.4063L17.9437 48.9938L17.8125 48.7313L16.0687 45.6376L15.2062 44.0813L14.1188 42.1501L12.2438 38.7938L11.25 37.0313V30.1313C12.9 29.0438 14.6062 28.0876 16.3687 27.2251C18.5062 26.1376 20.7187 25.2188 23.025 24.4688C25.5375 23.6438 28.1625 22.9876 30.8438 22.5563C33.5625 22.1063 36.3563 21.8813 39.225 21.8813C51.975 21.8813 63.675 26.4376 72.6938 34.0126C73.1063 34.3313 73.5 34.6876 73.8937 35.0251C75.4688 36.4313 76.9688 37.9501 78.3375 39.5438C78.4875 39.7126 78.6375 39.8626 78.75 40.0313Z" fill="#8E24AA"/>
<path d="M78.75 46.3313V59.8876C78.3 59.6251 77.6813 59.3063 76.9125 58.9688C76.5 58.7626 76.0312 58.5563 75.5438 58.3688C74.8313 58.0501 74.0625 57.7501 73.2 57.4501C73.0125 57.3751 72.825 57.3188 72.6187 57.2626C72.2812 57.1313 71.925 57.0189 71.5687 56.9063C70.4625 56.5688 69.2438 56.2501 67.9688 55.9688C67.4813 55.8751 66.975 55.7813 66.4688 55.7063C64.8375 55.4251 63.0938 55.2563 61.275 55.2376C61.125 55.2188 60.9562 55.2188 60.8063 55.2188L55.9875 55.2563L49.425 55.2938H49.4062L35.3625 55.4063C30.9 55.4063 28.1625 56.4751 26.5125 56.9063C26.5125 56.9063 26.4938 56.9063 26.4938 56.9251C24.75 57.3751 24.2063 57.0938 24.0562 54.0376C24.0188 53.1938 24 52.1063 24 50.7751L22.95 49.9688L21.1125 48.5813L19.9875 47.7188L19.7625 47.5501L16.65 45.1876L16.1813 44.8313L15.2062 44.0813L13.4063 42.7313L11.25 41.0813V34.7063C11.4375 34.5563 11.6062 34.4251 11.7937 34.3126C14.5125 32.4376 17.4188 30.8438 20.4938 29.5501C23.2313 28.3876 26.1188 27.4688 29.0813 26.8126C29.8875 26.6438 30.7125 26.4751 31.5562 26.3626C34.05 25.9313 36.6187 25.7251 39.225 25.7251C50.4938 25.7251 60.8438 29.6438 69.0563 36.1313C70.2938 37.1063 71.4937 38.1376 72.6187 39.2438C74.1562 40.7063 75.6 42.2626 76.9312 43.9126C77.1937 44.2501 77.4563 44.5876 77.7188 44.9438C78.075 45.3938 78.4125 45.8626 78.75 46.3313Z" fill="#C2185B"/>
<path d="M78.75 53.8499V59.9999C78.75 61.2187 78.6375 62.4187 78.4125 63.5812C78.075 65.3062 77.4938 66.9562 76.7063 68.4937C76.2937 68.5874 75.825 68.5874 75.3 68.5124C74.1188 68.3062 72.7313 67.6874 71.2313 66.8811C71.1563 66.8624 71.0813 66.8249 71.025 66.7874C70.5563 66.5437 70.0688 66.2812 69.5813 65.9812C68.5875 65.4374 67.5375 64.8374 66.4875 64.2749C66.2625 64.1624 66.0375 64.0499 65.8313 63.9374C64.6313 63.3187 63.3938 62.7562 62.1563 62.3249C62.1563 62.3249 62.1562 62.3249 62.1375 62.3249C61.875 62.2312 61.5938 62.1374 61.3125 62.0624C60.2438 61.7624 59.1562 61.5749 58.1063 61.5749L56.0437 60.9749L46.9125 58.3312C46.9125 58.3312 46.9125 58.3312 46.8937 58.3312L41.2875 56.6999H41.2688L38.8312 55.9874C31.7812 55.9874 27.45 58.9874 25.35 57.8437C24.525 57.4124 24.0375 56.3249 23.8687 54.1874C23.8125 53.5874 23.7937 52.9124 23.7937 52.1249L21.6 51.0562L21.5063 51.0187H21.4875L19.9125 50.2312L18.1875 49.4062L18.0563 49.3499L17.7375 49.1812L14.0625 47.3999L11.25 46.0312V39.5999C11.5687 39.3187 11.9063 39.0562 12.2438 38.7937C12.6 38.5124 12.9562 38.2499 13.3125 37.9687C13.3312 37.9687 13.3313 37.9687 13.3313 37.9687C15.5438 36.3749 17.8875 34.9687 20.3812 33.8062C23.2875 32.4187 26.3812 31.3499 29.5875 30.6562C30.0562 30.5437 30.5437 30.4312 31.0312 30.3562C33.6937 29.8499 36.4312 29.5874 39.225 29.5874C49.1063 29.5874 58.1813 32.7937 65.4938 38.1937C67.6125 39.7687 69.5812 41.5124 71.3812 43.4062C72.8625 44.9624 74.2313 46.6499 75.4688 48.4124C75.5625 48.5437 75.6562 48.6749 75.75 48.7874C76.4438 49.7999 77.0813 50.8312 77.6813 51.8999C78.075 52.5374 78.4125 53.1937 78.75 53.8499Z" fill="#D81B60"/>
<path d="M78.4125 63.5812C78.075 65.3062 77.4938 66.9562 76.7063 68.4937C76.35 69.1874 75.9562 69.8437 75.525 70.4812C75.2625 70.8749 74.9813 71.2499 74.7 71.6062C74.025 71.3437 73.0312 70.9687 71.8125 70.5562C71.8125 70.5562 71.8125 70.5562 71.8125 70.5374C70.8937 70.2187 69.8438 69.8812 68.7188 69.5624C68.4 69.4687 68.0813 69.3749 67.7438 69.2812C66.4125 68.9249 65.025 68.6062 63.675 68.4187C62.55 68.2312 61.4438 68.1187 60.4125 68.1187L59.55 67.8749H59.5312L54.9938 66.5624L52.2 65.7562L49.0875 64.8562H49.0687L48.0562 64.5749L35.8125 61.0499L32.2875 60.0374L29.6625 59.4187L25.3875 58.4062L24.8625 58.2749C24.8625 58.2749 24.8625 58.2749 24.8438 58.2749L20.55 57.2812C20.55 57.2624 20.55 57.2624 20.55 57.2624L19.7812 57.0937L19.3875 56.9999L16.2563 56.2687L15.9 56.1749L13.2375 53.9812L11.25 52.3124V44.6624C11.9438 43.9874 12.6563 43.3499 13.4063 42.7312C13.6313 42.5249 13.875 42.3374 14.1188 42.1499C14.3438 41.9624 14.5875 41.7749 14.8312 41.5874C16.5375 40.2937 18.3375 39.1312 20.25 38.1374C22.6875 36.8249 25.275 35.7749 27.9938 35.0249C28.5188 34.8562 29.0437 34.7062 29.5875 34.5937C32.6625 33.8249 35.8875 33.4312 39.225 33.4312C47.6063 33.4312 55.4063 35.9624 61.8563 40.2937C65.0625 42.4499 67.95 45.0374 70.3875 47.9812C71.625 49.4624 72.75 51.0187 73.7438 52.6687C73.8375 52.7999 73.9125 52.9124 73.9875 53.0437C74.5875 54.0374 75.15 55.0687 75.6562 56.1187C76.125 57.0562 76.5375 57.9937 76.9125 58.9687C77.5125 60.4687 78 62.0062 78.4125 63.5812Z" fill="#F50057"/>
<path d="M75.525 70.4812C75.2625 70.875 74.9812 71.2499 74.7 71.6062C73.875 72.6374 72.975 73.575 71.9625 74.4C71.0812 75.1312 70.1437 75.7875 69.15 76.35C68.775 76.2562 68.4 76.1437 68.0062 75.9937C66.7687 75.5624 65.475 74.85 64.275 74.1C62.475 72.9562 60.9187 71.7187 60.225 71.1562C59.9625 70.9312 59.8312 70.8187 59.8312 70.8187L56.6437 70.5374L56.25 70.4999L52.125 70.1437L47.85 69.7687L41.5312 69.2062L31.5187 68.3249L31.4813 68.3062L27.9562 66.6L24.3937 64.8749L21.525 63.4875L20.9062 63.1875L20.1375 62.8125L17.475 61.5187L13.9312 59.8125L12.825 59.2687L11.25 58.7812V50.4C12.1312 49.3499 13.0687 48.3562 14.0625 47.4C14.7 46.8 15.375 46.2 16.0687 45.6375C16.1812 45.5437 16.2937 45.45 16.4062 45.375C16.4812 45.2812 16.575 45.225 16.65 45.1875C17.7562 44.2875 18.9187 43.4812 20.1187 42.75C21.5062 41.8687 22.9688 41.0812 24.4875 40.425C26.1187 39.6937 27.825 39.075 29.5875 38.6062C32.6437 37.7437 35.8875 37.2937 39.225 37.2937C46.875 37.2937 53.9437 39.6187 59.775 43.6125C63.5062 46.1625 66.7312 49.3875 69.2812 53.1187C70.125 54.3187 70.875 55.5937 71.5687 56.9062C71.8125 57.3937 72.0562 57.8812 72.2625 58.3687C72.4875 58.8375 72.6937 59.3062 72.9 59.775C73.2937 60.7499 73.65 61.7249 73.9687 62.7374C74.5687 64.6124 75.0187 66.525 75.3 68.5125C75.3937 69.1687 75.4687 69.825 75.525 70.4812Z" fill="#FF1744"/>
<path d="M71.9812 73.9124C71.9812 74.0624 71.9813 74.2312 71.9625 74.3999C71.0813 75.1312 70.1438 75.7874 69.15 76.3499C68.7375 76.575 68.325 76.7999 67.8937 76.9874C67.4625 77.1937 67.0312 77.3812 66.5812 77.5499C65.9437 77.2124 65.0813 76.7999 64.1625 76.4062C62.8688 75.8249 61.4625 75.2999 60.375 75.1312C60.1125 75.0749 59.8687 75.0562 59.6437 75.0562L56.5687 74.6624H56.5312L52.7063 74.1562L48.8438 73.6499L47.0438 73.4249L32.8688 71.5874C31.95 71.5874 30.975 71.5312 29.9625 71.4C28.725 71.2875 27.4312 71.0999 26.1375 70.8374C24.8625 70.6124 23.5687 70.3125 22.3312 69.9937C21.0375 69.6937 19.7625 69.3374 18.5812 68.9999C17.2125 68.5874 15.9375 68.1937 14.8687 67.8374C13.9875 67.5562 13.2375 67.2937 12.6562 67.0874C12.3188 66.2812 12.0375 65.4374 11.8312 64.5749C11.4375 63.1124 11.25 61.5749 11.25 59.9999V56.8687C11.85 55.8749 12.5062 54.9 13.2375 53.9812C14.5687 52.2187 16.0875 50.6062 17.7375 49.1812C17.7938 49.1062 17.8688 49.0499 17.925 49.0124L17.9437 48.9937C18.525 48.4687 19.125 48 19.7625 47.55C19.8375 47.475 19.9125 47.4187 19.9875 47.3625C20.2875 47.1375 20.6062 46.9124 20.9438 46.7062C23.625 44.8874 26.5875 43.4625 29.7563 42.5062C32.7563 41.6062 35.925 41.1375 39.225 41.1375C45.7687 41.1375 51.8812 43.0687 56.9812 46.3687C60.75 48.7874 63.9938 51.9749 66.4688 55.7062C66.7688 56.1374 67.05 56.5687 67.3312 57.0187C68.625 59.2124 69.6937 61.5749 70.4813 64.0499C70.575 64.3312 70.65 64.6124 70.725 64.9124C70.875 65.4187 71.0063 65.9437 71.1188 66.4687C71.1562 66.6 71.1938 66.7312 71.2313 66.8812C71.4938 68.0624 71.6812 69.2999 71.8125 70.5374C71.8125 70.5562 71.8125 70.5562 71.8125 70.5562C71.925 71.6625 71.9812 72.7874 71.9812 73.9124Z" fill="#FF5722"/>
<path d="M68.1188 73.9125C68.1188 74.5687 68.0813 75.2812 68.0063 75.9937C67.9688 76.3312 67.9313 76.6688 67.8938 76.9875C67.4625 77.1938 67.0313 77.3813 66.5813 77.55C65.7375 77.8688 64.8751 78.1313 63.9938 78.3188C63.3938 78.45 62.7751 78.5625 62.1563 78.6188H62.1376C61.5563 78.2625 60.8813 77.8312 60.1875 77.3438C58.9313 76.4625 57.6188 75.4688 56.5688 74.6625C56.55 74.6437 56.55 74.6437 56.5313 74.625C55.425 73.7812 54.6376 73.1437 54.6376 73.1437L52.6501 73.2187L48.8251 73.35L47.0438 73.425L39.8813 73.6875L33.8251 73.9125C33.4313 73.9312 32.9626 73.9312 32.3813 73.9125H32.3626C31.5751 73.8937 30.6375 73.8375 29.6063 73.7438C28.4063 73.65 27.0938 73.5375 25.7625 73.4063C24.4688 73.2563 23.1563 73.1062 21.9 72.9562C20.5125 72.8062 19.2 72.6375 18.075 72.4875C17.1938 72.375 16.425 72.2812 15.8063 72.2062C15.2813 71.6062 14.8125 70.9875 14.3625 70.3125C13.6875 69.3 13.1063 68.2312 12.6563 67.0875C12.3188 66.2812 12.0375 65.4375 11.8313 64.575C12.375 62.9062 13.0875 61.3312 13.9313 59.8125C14.6063 58.575 15.3938 57.3938 16.2563 56.2688C17.1 55.1625 18.0188 54.1313 19.0125 53.1938V53.175C19.2938 52.8938 19.575 52.6313 19.8563 52.3875C20.3813 51.9 20.925 51.45 21.4875 51.0187H21.5063C21.525 50.9812 21.5438 50.9813 21.5625 50.9625C22.0125 50.6063 22.4813 50.2875 22.95 49.9687C25.725 48.075 28.8563 46.6688 32.2313 45.8438C34.4626 45.3 36.8063 45 39.225 45C43.9875 45 48.4875 46.1437 52.4438 48.2062H52.4625C55.8563 49.95 58.8563 52.35 61.2751 55.2375C62.6063 56.775 63.75 58.4625 64.6875 60.2438C65.3438 61.4438 65.9063 62.7 66.3751 63.975C66.4126 64.0875 66.45 64.1812 66.4875 64.275C66.8063 65.2125 67.0876 66.1875 67.3313 67.1625C67.5 67.8562 67.6313 68.5688 67.7438 69.2813C67.7813 69.5063 67.8188 69.7125 67.8376 69.9375C68.0251 71.2312 68.1188 72.5625 68.1188 73.9125Z" fill="#FF6F00"/>
<path d="M64.275 73.9125V74.1C64.275 74.7376 64.2188 75.5438 64.1626 76.4063C64.1063 77.0438 64.0501 77.7001 63.9938 78.3188C63.3938 78.4501 62.7751 78.5625 62.1563 78.6188H62.1375C61.425 78.7126 60.7313 78.75 60 78.75H56.7188L56.0063 78.5438L52.3125 77.4188L48.5625 76.2938L39.8813 73.6875L36.1313 72.5626C36.1313 72.5626 34.5751 73.1813 32.3813 73.9125H32.3625C31.5188 74.1938 30.6 74.4938 29.625 74.7938C28.4063 75.15 27.1125 75.5063 25.8375 75.7875C24.525 76.0875 23.2313 76.3125 22.0688 76.4063C21.7126 76.4438 21.3563 76.4625 21.0375 76.4625C19.9875 75.8813 18.975 75.1875 18.0563 74.4188C17.25 73.7438 16.5 73.0125 15.8063 72.2063C15.2813 71.6063 14.8125 70.9876 14.3625 70.3125C14.4938 69.4688 14.6438 68.6438 14.8688 67.8376C15.4313 65.6063 16.3125 63.4688 17.475 61.5188C18.1125 60.4126 18.825 59.3438 19.65 58.3501C19.6688 58.2938 19.725 58.2376 19.7813 58.2001C19.7625 58.1813 19.7813 58.1813 19.7813 58.1813C20.025 57.8626 20.2875 57.5625 20.55 57.2813C20.55 57.2625 20.55 57.2626 20.55 57.2626C21.3188 56.4376 22.1063 55.6501 22.9688 54.9188C23.2688 54.6751 23.55 54.4313 23.8688 54.1875C23.925 54.1313 23.9813 54.0938 24.0563 54.0375C28.275 50.8125 33.5438 48.8625 39.225 48.8625C45.675 48.8625 51.5438 51.2813 55.9875 55.2563C58.125 57.1875 59.9438 59.4938 61.3125 62.0625C61.425 62.25 61.5375 62.4563 61.6313 62.6625C61.8 63 61.9688 63.3563 62.1188 63.7313C62.7376 65.0813 63.2251 66.5063 63.5626 67.9688C63.6001 68.1188 63.6375 68.2688 63.675 68.4188C63.825 69.1126 63.9563 69.825 64.05 70.5375C64.2001 71.6438 64.275 72.7688 64.275 73.9125Z" fill="#FF9800"/>
<path d="M60.4126 73.9125C60.4126 74.2875 60.3938 74.7 60.3751 75.1313C60.3376 75.825 60.2813 76.575 60.1875 77.3438C60.15 77.8125 60.0751 78.2813 60 78.75H49.725L47.7375 78.4313L39.975 77.1938L38.8688 77.0251L36.3375 76.6125C35.2313 76.6125 32.8313 77.1 30.3 77.5688C28.9688 77.8125 27.6188 78.075 26.4001 78.2438C26.25 78.2625 26.1001 78.2813 25.9688 78.3H25.9501C24.6376 78.0188 23.3625 77.5876 22.1625 77.0251C21.7875 76.8563 21.4126 76.6688 21.0376 76.4625C19.9876 75.8813 18.975 75.1875 18.0563 74.4188C18.0375 74.1938 18.0188 74.0063 18.0188 73.9125C18.0188 73.425 18.0376 72.9563 18.0751 72.4875C18.1501 71.2875 18.3188 70.125 18.5813 69C18.9938 67.2938 19.5938 65.6438 20.4 64.125C20.55 63.8063 20.7188 63.4875 20.9063 63.1875C20.9813 63.0375 21.075 62.9063 21.15 62.7563C21.4875 62.2126 21.8625 61.6875 22.2375 61.1625C23.025 60.1313 23.9063 59.1563 24.8438 58.275C24.8625 58.275 24.8626 58.275 24.8626 58.275C24.9376 58.2 25.0126 58.125 25.0876 58.0688C25.1813 57.9938 25.2563 57.9 25.3501 57.8438C25.7251 57.5063 26.1 57.2063 26.4938 56.925C26.4938 56.9063 26.5126 56.9063 26.5126 56.9063C30.0563 54.2625 34.4438 52.7063 39.2251 52.7063C42.9376 52.7063 46.3876 53.6438 49.4063 55.2938H49.4251C52.0126 56.7188 54.2626 58.65 56.0438 60.975C56.7375 61.875 57.3563 62.8313 57.8813 63.8438H57.9001C57.9938 64.0313 58.0876 64.2188 58.1813 64.4063C58.7438 65.5125 59.1938 66.675 59.5313 67.875H59.5501C59.5688 67.9688 59.6063 68.0625 59.625 68.1563C59.85 68.9625 60.0376 69.7875 60.1688 70.6313C60.1875 70.8 60.2063 70.9875 60.225 71.1563C60.3563 72.0563 60.4126 72.975 60.4126 73.9125Z" fill="#FFC107"/>
<path d="M56.5688 73.7064C56.5688 74.0063 56.5688 74.3251 56.5313 74.6251V74.6439C56.5313 74.6626 56.5313 74.6626 56.5313 74.6626C56.4938 76.0126 56.3064 77.3438 56.0063 78.5438C56.0063 78.6188 55.9876 78.6751 55.9501 78.7501H47.1938L39.9751 77.1938L39.0188 76.9876L38.8688 77.0251L30.8626 78.6751L30.5063 78.7501H30.0001C28.8001 78.7501 27.6188 78.6376 26.4751 78.4126C26.3063 78.3751 26.1376 78.3376 25.9688 78.3001H25.9501C24.6376 78.0188 23.3626 77.5876 22.1626 77.0251C22.1251 76.8189 22.0876 76.6126 22.0688 76.4063C21.9376 75.6001 21.8813 74.7563 21.8813 73.9126C21.8813 73.5938 21.8813 73.2751 21.9001 72.9563C21.9563 71.9438 22.1063 70.9501 22.3313 69.9939C22.4813 69.2814 22.6876 68.5876 22.9313 67.9313C23.1376 67.3501 23.3813 66.7876 23.6438 66.2439C23.8688 65.7751 24.1313 65.3251 24.3938 64.8751C24.6563 64.4438 24.9376 64.0313 25.2376 63.6188C25.9876 62.5876 26.8688 61.6313 27.8438 60.7876C28.4063 60.3001 29.0251 59.8313 29.6626 59.4188C32.4001 57.6188 35.6813 56.5688 39.2251 56.5688C39.9188 56.5688 40.5938 56.6063 41.2501 56.7001H41.2876C43.2938 56.9251 45.1688 57.4876 46.8938 58.3313C46.9126 58.3313 46.9126 58.3313 46.9126 58.3313C49.6313 59.6626 51.9376 61.6688 53.6251 64.1438C53.9063 64.5563 54.1876 65.0063 54.4314 65.4563C54.6376 65.8126 54.8251 66.1876 54.9938 66.5626C55.2563 67.1438 55.5001 67.7626 55.7063 68.3813H55.7251C55.9313 69.0751 56.1188 69.7688 56.2501 70.5001V70.5188C56.4563 71.5501 56.5688 72.6189 56.5688 73.7064Z" fill="#FFD54F"/>
<path d="M52.7063 74.1001V74.1563C52.7063 75.2626 52.5751 76.3501 52.3126 77.4189C52.2188 77.8689 52.0876 78.3188 51.9188 78.7501H43.5188L39.2251 77.5688L34.9313 78.7501H30.0001C28.8001 78.7501 27.6188 78.6376 26.4751 78.4126C26.4376 78.3563 26.4188 78.3001 26.4001 78.2438C26.1376 77.4376 25.9313 76.6313 25.8376 75.7876C25.7626 75.2438 25.7251 74.6813 25.7251 74.1001C25.7251 73.8751 25.7251 73.6314 25.7626 73.4064C25.7813 72.5251 25.9126 71.6626 26.1376 70.8376C26.2501 70.2751 26.4188 69.7313 26.6438 69.2063C26.7188 68.9438 26.8313 68.7001 26.9626 68.4563C27.2438 67.8188 27.5813 67.2001 27.9563 66.6001C28.3688 66.0001 28.8188 65.4376 29.3251 64.9126C29.9251 64.2376 30.6001 63.6188 31.3688 63.1126C32.6813 62.1563 34.1813 61.4439 35.8126 61.0501C36.9001 60.7501 38.0438 60.6001 39.2251 60.6001C42.9751 60.6001 46.3313 62.1001 48.7688 64.5188C48.8626 64.6126 48.9751 64.7251 49.0688 64.8563H49.0876C49.3501 65.1376 49.5938 65.4189 49.8376 65.7376C50.5313 66.6189 51.1126 67.5751 51.5626 68.6251C51.7876 69.1126 51.9751 69.6188 52.1251 70.1438C52.1438 70.2188 52.1626 70.2751 52.1813 70.3501C52.4438 71.2688 52.6126 72.2251 52.6501 73.2188C52.6876 73.5001 52.7063 73.8001 52.7063 74.1001Z" fill="#FFE082"/>
<path d="M48.8624 74.0999C48.8624 74.8687 48.7687 75.5999 48.5624 76.2936C48.3749 77.0436 48.0937 77.7562 47.7374 78.4312C47.6812 78.5437 47.5499 78.7499 47.5499 78.7499H30.8999C30.8812 78.7312 30.8624 78.6936 30.8624 78.6749C30.6374 78.3186 30.4499 77.9624 30.2999 77.5686C29.9249 76.7061 29.6999 75.7687 29.6249 74.7936C29.5874 74.5687 29.5874 74.3249 29.5874 74.0999C29.5874 73.9874 29.5874 73.8562 29.6062 73.7437C29.6249 72.9187 29.7374 72.1312 29.9624 71.3999C30.1499 70.7249 30.3937 70.1062 30.7124 69.5062C30.7124 69.5062 30.7312 69.4874 30.7312 69.4686C30.9562 69.0749 31.1999 68.6812 31.4812 68.3062C32.3999 67.0687 33.6187 66.0562 35.0249 65.3999C35.0437 65.3999 35.0437 65.3999 35.0437 65.3999C35.4937 65.1749 35.9624 64.9874 36.4499 64.8562C36.4499 64.8562 36.4499 64.8562 36.4687 64.8562C37.3312 64.5937 38.2687 64.4624 39.2249 64.4624C40.3312 64.4624 41.3999 64.6312 42.3749 64.9874C42.7312 65.0812 43.0687 65.2312 43.4062 65.3999C43.4062 65.3999 43.4062 65.3999 43.4249 65.3999C45.0374 66.1687 46.4062 67.3686 47.3437 68.8686C47.5312 69.1499 47.6999 69.4499 47.8499 69.7686C47.9249 69.8999 47.9999 70.0499 48.0562 70.1812C48.4874 71.1562 48.7499 72.2249 48.8249 73.3499C48.8437 73.4436 48.8437 73.5374 48.8437 73.6499C48.8624 73.7999 48.8624 73.9499 48.8624 74.0999Z" fill="#FFECB3"/>
<path d="M56.25 20.625H33.75C26.4375 20.625 20.625 26.4375 20.625 33.75V56.25C20.625 63.5625 26.4375 69.375 33.75 69.375H56.25C63.5625 69.375 69.375 63.5625 69.375 56.25V33.75C69.375 26.4375 63.5625 20.625 56.25 20.625Z" stroke="white" stroke-width="2" stroke-miterlimit="10" stroke-linecap="round" stroke-linejoin="round"/>
<path d="M58.125 31.875C59.1605 31.875 60 31.0355 60 30C60 28.9645 59.1605 28.125 58.125 28.125C57.0895 28.125 56.25 28.9645 56.25 30C56.25 31.0355 57.0895 31.875 58.125 31.875Z" fill="white"/>
<path d="M45 56.25C51.2132 56.25 56.25 51.2132 56.25 45C56.25 38.7868 51.2132 33.75 45 33.75C38.7868 33.75 33.75 38.7868 33.75 45C33.75 51.2132 38.7868 56.25 45 56.25Z" stroke="white" stroke-width="2" stroke-miterlimit="10" stroke-linecap="round" stroke-linejoin="round"/>
</svg>
