<svg width="90" height="90" viewBox="0 0 90 90" fill="none" xmlns="http://www.w3.org/2000/svg">
<path d="M45 82.5C65.7107 82.5 82.5 65.7107 82.5 45C82.5 24.2893 65.7107 7.5 45 7.5C24.2893 7.5 7.5 24.2893 7.5 45C7.5 65.7107 24.2893 82.5 45 82.5Z" fill="#E60023"/>
<path d="M45.8323 21.4053C29.6467 21.4053 21.0535 32.2702 21.0535 44.0986C21.0535 49.5995 23.9813 56.4462 28.666 58.6268C29.3755 58.9572 29.7564 58.8144 29.9193 58.1264C30.0447 57.6043 30.6765 55.0572 30.9606 53.8731C31.0515 53.4952 31.0069 53.1706 30.7011 52.7985C29.1505 50.9178 27.9102 47.462 27.9102 44.2399C27.9102 35.9682 34.1726 27.9649 44.8414 27.9649C54.0534 27.9649 60.5034 34.2433 60.5034 43.2216C60.5034 53.3653 55.3804 60.3937 48.7154 60.3937C45.0347 60.3937 42.2785 57.349 43.1625 53.6149C44.2227 49.1581 46.2693 44.3495 46.2693 41.1303C46.2693 38.2514 44.726 35.8485 41.5256 35.8485C37.7625 35.8485 34.7409 39.7399 34.7409 44.9553C34.7409 48.2741 35.863 50.5211 35.863 50.5211C35.863 50.5211 32.1462 66.2365 31.4654 69.1615C30.7117 72.3908 31.0055 76.927 31.3316 79.8928C32.1775 80.2245 33.0236 80.5561 33.8981 80.8268C35.4298 78.3371 37.7137 74.2536 38.5602 70.9976C39.0174 69.2423 40.8981 62.0826 40.8981 62.0826C42.1198 64.4149 45.6909 66.3894 49.4915 66.3894C60.8005 66.3894 68.951 55.9889 68.951 43.0644C68.951 30.6735 58.8419 21.4053 45.8323 21.4053Z" fill="white"/>
</svg>
