<svg width="146" height="146" viewBox="0 0 146 146" fill="none" xmlns="http://www.w3.org/2000/svg">
<path d="M37.958 14.6969H55.6461C56.9414 14.6969 57.9898 13.6485 57.9898 12.3531C57.9898 11.0578 56.9414 10.0094 55.6461 10.0094H37.958C36.6626 10.0094 35.6143 11.0578 35.6143 12.3531C35.6143 13.6485 36.6626 14.6969 37.958 14.6969Z" fill="black"/>
<path d="M68.0262 65.4423H61.8921V56.5365C61.8921 48.2144 55.1196 41.444 46.7975 41.444C38.4799 41.444 31.7142 48.2144 31.7142 56.5365V65.4423H25.571C24.2757 65.4423 23.2273 66.4907 23.2273 67.7861V91.8644C23.2273 98.8682 28.9242 104.565 35.9278 104.565H57.6762C64.6753 104.565 70.37 98.868 70.37 91.8644V67.7861C70.37 66.4907 69.3218 65.4423 68.0262 65.4423ZM36.4017 56.5365C36.4017 50.7986 41.0663 46.1315 46.7975 46.1315C52.5354 46.1315 57.2046 50.7983 57.2046 56.5365V65.4423H36.4015L36.4017 56.5365ZM65.6825 91.8644C65.6825 96.2819 62.0914 99.8774 57.6762 99.8774H35.9278C31.5103 99.8774 27.9148 96.2816 27.9148 91.8644V70.1298H65.6827L65.6825 91.8644Z" fill="black"/>
<path d="M132.342 46.0033C132.342 41.3821 128.581 37.6216 123.96 37.6216H123.32V34.0398C123.32 26.4501 119.307 22.4402 111.717 22.4402C106.279 22.4402 103.141 25.9054 100.621 28.6909C98.4033 31.1423 96.9361 32.6437 94.8167 32.6437H92.9696V12.186C92.9698 5.65609 87.6575 0.34375 81.1299 0.34375H12.4768C5.94662 0.34375 0.634277 5.65609 0.634277 12.186V133.814C0.634277 140.344 5.94662 145.656 12.4768 145.656H81.1299C87.6577 145.656 92.9701 140.344 92.9701 133.814V82.9839H95.0185C98.525 82.9839 101.377 80.132 101.377 76.6255C101.377 73.9063 99.6603 71.5811 97.1609 70.6724V60.0742C98.2456 60.7438 99.3008 61.8562 100.622 63.3161C102.457 65.3448 104.632 67.7193 107.773 68.8677C107.817 68.8881 107.859 68.9057 107.905 68.923C109.041 69.322 110.298 69.5669 111.718 69.5669C119.308 69.5669 123.32 65.557 123.32 57.9672V54.3852H123.961C128.581 54.385 132.342 50.6245 132.342 46.0033ZM78.5663 46.0033C78.5663 41.222 82.4574 37.3309 87.2386 37.3309H92.4732V54.6756H87.2386C82.4574 54.6756 78.5663 50.7848 78.5663 46.0033ZM12.4768 5.03125H81.1299C85.0735 5.03125 88.2826 8.24008 88.2826 12.186V19.6773H5.32178V12.186C5.32178 8.24008 8.53084 5.03125 12.4768 5.03125ZM81.1299 140.969H12.4768C8.53084 140.969 5.32201 137.76 5.32201 133.814V126.332H88.2826V133.814C88.2823 137.76 85.0735 140.969 81.1299 140.969ZM88.2823 121.644H5.32178V24.3648H88.2823V32.6434H87.2386C79.8708 32.6434 73.8788 38.6355 73.8788 46.0033C73.8788 50.8028 76.4302 55.0059 80.2395 57.3618V74.7531C80.2372 76.7535 80.2327 79.4934 82.0683 81.3311C83.1647 82.4275 84.6844 82.9837 86.5887 82.9837H88.2826L88.2823 121.644ZM95.0183 78.2964H86.5885C86.0002 78.2964 85.5608 78.1956 85.3868 78.0194C84.9223 77.5548 84.9244 75.8725 84.9268 74.7602V59.1494C85.6791 59.2813 86.4488 59.3634 87.2384 59.3634H92.4729V72.6109C92.4729 73.9063 93.7226 74.9547 95.018 74.9547C95.9405 74.9547 96.6889 75.703 96.6889 76.6255C96.6891 77.5319 95.9248 78.2964 95.0183 78.2964ZM104.096 60.1689C102.225 58.101 100.135 55.8377 97.1607 55.0164V36.9902C100.135 36.1689 102.225 33.9058 104.096 31.8377C104.878 30.9735 105.626 30.1581 106.403 29.4477V62.5586C105.626 61.8484 104.878 61.033 104.096 60.1689ZM118.632 57.967C118.632 62.9406 116.693 64.8791 111.717 64.8791C111.498 64.8791 111.299 64.8456 111.09 64.8276V27.1792C111.299 27.1609 111.498 27.1277 111.717 27.1277C116.693 27.1277 118.632 29.0662 118.632 34.0398V57.967ZM123.32 42.3093H123.96C125.997 42.3093 127.655 43.9663 127.655 46.0035C127.655 48.0407 125.997 49.6977 123.96 49.6977H123.32V42.3093Z" fill="black"/>
<path d="M143.022 43.6595H137.176C135.881 43.6595 134.833 44.7079 134.833 46.0033C134.833 47.2987 135.881 48.347 137.176 48.347H143.022C144.317 48.347 145.366 47.2987 145.366 46.0033C145.366 44.7079 144.317 43.6595 143.022 43.6595Z" fill="black"/>
<path d="M132.129 33.1472C132.633 33.1472 133.139 32.9847 133.567 32.6529L138.174 29.0639C139.195 28.2675 139.378 26.7956 138.584 25.7749C137.787 24.7542 136.315 24.5709 135.295 25.3652L130.687 28.9542C129.667 29.7506 129.483 31.2225 130.278 32.2432C130.74 32.8359 131.431 33.1472 132.129 33.1472Z" fill="black"/>
<path d="M133.567 59.3518C132.543 58.5531 131.072 58.7385 130.278 59.7615C129.483 60.7822 129.667 62.2541 130.687 63.0505L135.295 66.6395C135.723 66.9737 136.228 67.1338 136.732 67.1338C137.43 67.1338 138.121 66.8225 138.584 66.2298C139.378 65.2091 139.195 63.7372 138.174 62.9408L133.567 59.3518Z" fill="black"/>
<path d="M49.6562 131.237H43.9409C42.6455 131.237 41.5972 132.285 41.5972 133.581C41.5972 134.876 42.6455 135.924 43.9409 135.924H49.6562C50.9515 135.924 51.9999 134.876 51.9999 133.581C51.9999 132.285 50.9518 131.237 49.6562 131.237Z" fill="black"/>
<path d="M46.7974 78.9623C45.502 78.9623 44.4536 80.0106 44.4536 81.306V88.7013C44.4536 89.9967 45.502 91.045 46.7974 91.045C48.0928 91.045 49.1411 89.9967 49.1411 88.7013V81.306C49.1411 80.0106 48.0928 78.9623 46.7974 78.9623Z" fill="black"/>
</svg>
