<svg width="146" height="112" viewBox="0 0 146 112" fill="none" xmlns="http://www.w3.org/2000/svg">
<path d="M105.962 97.9358C104.765 98.428 104.195 99.7988 104.688 100.996L104.704 101.035C105.074 101.934 105.937 102.47 106.852 102.47C107.153 102.47 107.459 102.413 107.756 102.289C108.953 101.797 109.515 100.408 109.022 99.2108C108.528 98.0136 107.158 97.4483 105.962 97.9358Z" fill="black"/>
<path d="M113.533 98.1097C112.431 98.7893 112.09 100.234 112.77 101.335L112.795 101.374C113.234 102.085 113.988 102.472 114.764 102.472C115.189 102.472 115.619 102.358 116.008 102.117C117.109 101.438 117.439 99.9729 116.758 98.8718C116.077 97.7686 114.634 97.4276 113.533 98.1097Z" fill="black"/>
<path d="M143.092 34.5882C146.713 30.6697 146.475 24.5335 142.559 20.908C140.665 19.1569 138.181 18.2666 135.606 18.3467C133.013 18.4452 130.621 19.5437 128.87 21.4388L128.86 21.4503C127.038 17.9373 123.402 15.5429 119.185 15.5429H104.118V3.15125C104.118 1.85585 103.068 0.807495 101.774 0.807495H48.2395C47.5802 0.807495 46.9509 1.08453 46.5067 1.57203L33.7734 15.5429H17.2764C11.2511 15.5429 6.34844 20.4455 6.34844 26.472V90.2255C2.96078 90.7269 0.34375 93.6268 0.34375 97.153V104.154C0.34375 108.036 3.49773 111.193 7.37383 111.193H129.089C132.965 111.193 136.119 108.036 136.119 104.154V97.153C136.119 93.6268 133.502 90.7269 130.114 90.2255V48.6223L143.092 34.5882ZM126.108 46.0505L106.171 67.6112L98.8326 60.8253L124.811 32.7319L132.147 39.5201L126.118 46.0395C126.114 46.0433 126.111 46.047 126.108 46.0505ZM104.118 90.1217V74.3914L107.213 73.0812C107.215 73.0808 107.216 73.0791 107.217 73.0787C107.513 72.9528 107.789 72.7648 108.021 72.5136L115.772 64.1314V90.1215L104.118 90.1217ZM96.5943 65.1402L102.044 70.1797L93.738 73.6948L96.5943 65.1402ZM104.118 30.7428H115.772V35.6028L104.118 48.2066V30.7428ZM135.786 23.0295C137.147 22.9859 138.403 23.4484 139.376 24.3479C141.396 26.218 141.518 29.3855 139.649 31.4066L135.33 36.0777L127.995 29.2894L132.312 24.6202C133.212 23.6476 134.446 23.0823 135.786 23.0295ZM119.185 20.2304C122.228 20.2304 124.745 22.4019 125.294 25.3058L120.46 30.534V28.3993C120.46 27.1039 119.41 26.0555 118.116 26.0555H104.118V20.2304H119.185ZM99.4302 53.2756L93.7998 59.3647C93.5723 59.6108 93.4136 59.8934 93.3109 60.1913C93.3081 60.1998 93.3004 60.2054 93.2976 60.2138L88.1814 75.5328H72.0573C70.7631 75.5328 69.7136 76.5812 69.7136 77.8766C69.7136 79.172 70.7631 80.2203 72.0573 80.2203H89.8701C90.1952 80.2203 90.5043 80.1535 90.7858 80.034L99.4305 76.3754V90.1217H37.7624V19.562H48.7384C50.0327 19.562 51.0822 18.5136 51.0822 17.2182V5.49476H99.43L99.4302 53.2756ZM84.9461 94.8092C84.6763 96.4998 83.2232 97.7984 81.4616 97.7984H54.9995C53.2389 97.7984 51.7858 96.4998 51.5162 94.8092H84.9461ZM20.6903 90.1217V30.7428H33.0752V90.1217H20.6903ZM40.7263 14.8744L46.3947 8.65437V14.8744H40.7263ZM17.2764 20.2304H33.0749V26.0555H18.3466C17.0523 26.0555 16.0028 27.1039 16.0028 28.3993V90.122H11.0359V26.472C11.0359 23.0295 13.8351 20.2304 17.2764 20.2304ZM131.431 97.153V104.154C131.431 105.45 130.381 106.505 129.089 106.505H7.37383C6.08172 106.505 5.03125 105.45 5.03125 104.154V97.153C5.03125 95.8597 6.08172 94.8092 7.37383 94.8092H46.829C47.122 99.0861 50.6542 102.486 54.9995 102.486H81.4616C85.8081 102.486 89.3404 99.0861 89.6334 94.8092H129.089C130.381 94.8092 131.431 95.8597 131.431 97.153ZM125.427 90.1217H120.46V59.0626L125.427 53.6914V90.1217Z" fill="black"/>
<path d="M78.3112 61.1429H48.9067C47.6125 61.1429 46.563 62.1913 46.563 63.4867C46.563 64.7821 47.6125 65.8304 48.9067 65.8304H78.3112C79.6054 65.8304 80.6549 64.7821 80.6549 63.4867C80.6549 62.1913 79.6056 61.1429 78.3112 61.1429Z" fill="black"/>
<path d="M78.3112 49.6166H48.9067C47.6125 49.6166 46.563 50.6649 46.563 51.9603C46.563 53.2557 47.6125 54.3041 48.9067 54.3041H78.3112C79.6054 54.3041 80.6549 53.2557 80.6549 51.9603C80.6549 50.6649 79.6056 49.6166 78.3112 49.6166Z" fill="black"/>
<path d="M46.563 39.9117C46.563 41.2071 47.6125 42.2555 48.9067 42.2555H78.3112C79.6054 42.2555 80.6549 41.2071 80.6549 39.9117C80.6549 38.6164 79.6054 37.568 78.3112 37.568H48.9067C47.6125 37.568 46.563 38.6164 46.563 39.9117Z" fill="black"/>
<path d="M48.9067 26.0553C47.6125 26.0553 46.563 27.1037 46.563 28.399C46.563 29.6944 47.6125 30.7428 48.9067 30.7428H67.8696C69.1638 30.7428 70.2133 29.6944 70.2133 28.399C70.2133 27.1037 69.1638 26.0553 67.8696 26.0553H48.9067Z" fill="black"/>
</svg>
