<svg width="146" height="134" viewBox="0 0 146 134" fill="none" xmlns="http://www.w3.org/2000/svg">
<path d="M20.0918 55.4358H45.9417C47.2371 55.4358 48.2855 54.3863 48.2855 53.092C48.2855 51.7978 47.2371 50.7483 45.9417 50.7483H20.0918C18.7964 50.7483 17.748 51.7978 17.748 53.092C17.748 54.3863 18.7962 55.4358 20.0918 55.4358Z" fill="black"/>
<path d="M64.9343 64.3118H20.0918C18.7964 64.3118 17.748 65.3613 17.748 66.6555C17.748 67.9497 18.7964 68.9993 20.0918 68.9993H64.9343C66.2297 68.9993 67.278 67.9497 67.278 66.6555C67.278 65.3613 66.2297 64.3118 64.9343 64.3118Z" fill="black"/>
<path d="M64.9343 77.8673H20.0918C18.7964 77.8673 17.748 78.9157 17.748 80.2111C17.748 81.5065 18.7964 82.5548 20.0918 82.5548H64.9343C66.2297 82.5548 67.278 81.5065 67.278 80.2111C67.278 78.9157 66.2297 77.8673 64.9343 77.8673Z" fill="black"/>
<path d="M131.859 0.224976H14.1339C7.26977 0.224976 0.34375 4.17091 0.34375 12.9874V104.825C0.34375 110.753 5.16625 115.576 11.092 115.576H52.1976L47.0455 129.086H38.0819C36.7865 129.086 35.7381 130.135 35.7381 131.43C35.7381 132.726 36.7865 133.774 38.0819 133.774H107.918C109.214 133.774 110.262 132.726 110.262 131.43C110.262 130.135 109.214 129.086 107.918 129.086H98.954L93.7968 115.576H134.899C140.832 115.576 145.656 110.753 145.656 104.825V20.7843V12.9874C145.656 4.17091 138.726 0.224976 131.859 0.224976ZM5.03125 12.9874C5.03125 5.4949 11.9985 4.91248 14.1339 4.91248H131.859C133.997 4.91248 140.969 5.4949 140.969 12.9874V20.7843C140.969 27.2444 135.709 32.5008 129.245 32.5008C122.784 32.5008 117.529 27.2444 117.529 20.7843C117.529 19.4901 116.481 18.4406 115.185 18.4406C113.89 18.4406 112.841 19.4901 112.841 20.7843C112.841 27.2444 107.586 32.5008 101.125 32.5008C94.6637 32.5008 89.4086 27.2444 89.4086 20.7843C89.4086 19.4901 88.3602 18.4406 87.0648 18.4406C85.7695 18.4406 84.7211 19.4901 84.7211 20.7843C84.7211 27.2444 79.4615 32.5008 72.9955 32.5008C66.5343 32.5008 61.2791 27.2444 61.2791 20.7843C61.2791 19.4901 60.2308 18.4406 58.9354 18.4406C57.64 18.4406 56.5916 19.4901 56.5916 20.7843C56.5916 27.2444 51.3365 32.5008 44.8752 32.5008C38.4116 32.5008 33.1518 27.2444 33.1518 20.7843C33.1518 19.4901 32.1034 18.4406 30.808 18.4406C29.5127 18.4406 28.4643 19.4901 28.4643 20.7843C28.4643 27.2444 23.2091 32.5008 16.7479 32.5008C10.2866 32.5008 5.03125 27.2444 5.03125 20.7843V12.9874ZM93.9353 129.086H52.0635L57.2155 115.576H88.7781L93.9353 129.086ZM134.899 110.888H11.092C7.75047 110.888 5.03125 108.169 5.03125 104.825V101.458H140.969V104.825C140.969 108.169 138.245 110.888 134.899 110.888ZM140.969 96.7706H5.03125V32.2434C8.01109 35.2896 12.1595 37.188 16.7477 37.188C22.7078 37.188 27.9353 33.9928 30.8078 29.2263C33.6827 33.9928 38.9125 37.188 44.875 37.188C50.8352 37.188 56.0627 33.9928 58.9352 29.2263C61.8077 33.9928 67.0354 37.188 72.9953 37.188C78.9599 37.188 84.19 33.9928 87.0646 29.2251C89.9371 33.9928 95.1648 37.188 101.125 37.188C107.085 37.188 112.312 33.9928 115.185 29.2263C118.057 33.9928 123.285 37.188 129.245 37.188C133.836 37.188 137.987 35.2886 140.969 32.2415L140.969 96.7706Z" fill="black"/>
<path d="M117.565 50.7482H115.451V50.5732C115.451 44.7869 110.745 40.08 104.959 40.08C99.1723 40.08 94.4644 44.7869 94.4644 50.5732V50.7482H92.3014C89.0009 50.7482 86.3162 53.433 86.3162 56.7335V82.2391C86.3162 85.5396 89.0009 88.2243 92.3014 88.2243H117.565C120.866 88.2243 123.551 85.5396 123.551 82.2391V56.7335C123.551 53.433 120.866 50.7482 117.565 50.7482ZM99.1519 50.5732C99.1519 47.3723 101.757 44.7675 104.959 44.7675C108.158 44.7675 110.763 47.3721 110.763 50.5732V50.7482H99.1519V50.5732ZM118.863 82.2391C118.863 82.9556 118.282 83.5368 117.566 83.5368H92.3016C91.599 83.5368 91.0039 82.9418 91.0039 82.2391V56.7335C91.0039 56.0296 91.599 55.4357 92.3016 55.4357H94.4647V59.4846C94.4647 60.7788 95.513 61.8283 96.8084 61.8283C98.1038 61.8283 99.1522 60.7788 99.1522 59.4846V55.4357H110.763V59.4846C110.763 60.7788 111.812 61.8283 113.107 61.8283C114.402 61.8283 115.451 60.7788 115.451 59.4846V55.4357H117.566C118.268 55.4357 118.863 56.0296 118.863 56.7335V82.2391Z" fill="black"/>
</svg>
