<svg width="150" height="143" viewBox="0 0 150 143" fill="none" xmlns="http://www.w3.org/2000/svg">
<path d="M145.605 0.423828H4.39453C1.96758 0.423828 0 2.40452 0 4.84766V40.2383V120.457C0 122.9 1.96758 124.881 4.39453 124.881H20.5078V138.152C20.5078 140.545 22.4481 142.576 24.9023 142.576H125.098C127.523 142.576 129.492 140.58 129.492 138.152V124.881H145.605C148.032 124.881 150 122.9 150 120.457V40.2383V4.84766C150 2.40452 148.032 0.423828 145.605 0.423828ZM59.4864 101.12L29.2969 128.269V76.0117L59.4864 101.12ZM37.1212 71.0426H112.879L75 102.546L37.1212 71.0426ZM36.4181 133.729L66.3404 106.82L72.201 111.695C73.8258 113.046 76.1742 113.045 77.7987 111.695L83.6593 106.82L113.582 133.729H36.4181ZM120.703 128.269L90.5136 101.12L120.703 76.0117V128.269ZM141.211 116.033H129.492V66.6188V66.6179C129.493 64.1724 127.502 62.1902 125.087 62.1949H24.9023C22.5211 62.1949 20.5072 64.1408 20.5078 66.6179V66.6188V116.033H8.78906V44.6621H141.211V116.033ZM141.211 35.8145H8.78906V9.27148H141.211V35.8145Z" fill="black"/>
<path d="M128.027 25.87C130.454 25.87 132.422 23.8894 132.422 21.4462C132.422 19.003 130.454 17.0223 128.027 17.0223C125.6 17.0223 123.633 19.003 123.633 21.4462C123.633 23.8894 125.6 25.87 128.027 25.87Z" fill="black"/>
<path d="M110.449 25.87C112.876 25.87 114.844 23.8894 114.844 21.4462C114.844 19.003 112.876 17.0223 110.449 17.0223C108.022 17.0223 106.055 19.003 106.055 21.4462C106.055 23.8894 108.022 25.87 110.449 25.87Z" fill="black"/>
<path d="M92.8711 25.87C95.2981 25.87 97.2656 23.8894 97.2656 21.4462C97.2656 19.003 95.2981 17.0223 92.8711 17.0223C90.4441 17.0223 88.4766 19.003 88.4766 21.4462C88.4766 23.8894 90.4441 25.87 92.8711 25.87Z" fill="black"/>
<path d="M21.9727 25.87H50.7844C53.2113 25.87 55.1789 23.8893 55.1789 21.4462C55.1789 19.003 53.2113 17.0223 50.7844 17.0223H21.9727C19.5457 17.0223 17.5781 19.003 17.5781 21.4462C17.5781 23.8893 19.5457 25.87 21.9727 25.87Z" fill="black"/>
</svg>
