<svg width="130" height="146" viewBox="0 0 130 146" fill="none" xmlns="http://www.w3.org/2000/svg">
<path d="M38.0159 14.6969H55.7027C56.997 14.6969 58.0465 13.6485 58.0465 12.3531C58.0465 11.0578 56.997 10.0094 55.7027 10.0094H38.0159C36.7217 10.0094 35.6721 11.0578 35.6721 12.3531C35.6721 13.6485 36.7217 14.6969 38.0159 14.6969Z" fill="black"/>
<path d="M128.769 58.4591C118.448 46.0131 106.028 38.0402 93.0276 35.3045V12.186C93.0276 5.65609 87.7153 0.34375 81.1854 0.34375H12.5334C6.00326 0.34375 0.690918 5.65609 0.690918 12.186V133.814C0.690918 140.344 6.00326 145.656 12.5334 145.656H81.1854C87.7153 145.656 93.0276 140.344 93.0276 133.814V84.6409C105.955 81.9508 118.308 74.0741 128.77 61.4507C129.488 60.583 129.488 59.3266 128.769 58.4591ZM12.5334 5.03125H81.1854C85.1301 5.03125 88.3401 8.24008 88.3401 12.186V19.6773H5.37842V12.186C5.37842 8.24008 8.58865 5.03125 12.5334 5.03125ZM81.1854 140.969H12.5334C8.58865 140.969 5.37865 137.76 5.37865 133.814V126.332H88.3404V133.814C88.3401 137.76 85.1301 140.969 81.1854 140.969ZM88.3401 121.644H5.37842V24.3648H88.3401V34.551C86.5605 34.352 84.7748 34.232 82.9842 34.232C66.4155 34.232 50.1558 42.8357 37.1997 58.4591C36.48 59.3266 36.48 60.5854 37.1997 61.4528C38.7642 63.3398 40.4069 65.1077 42.0818 66.809C31.1958 69.6367 23.1234 79.5189 23.1234 91.2782C23.1234 105.228 34.4749 116.576 48.4286 116.576C62.3824 116.576 73.7339 105.228 73.7339 91.2782C73.7339 88.9609 73.3945 86.7259 72.8086 84.5924C76.218 85.3143 79.6333 85.6935 83.0332 85.6935C84.8081 85.6935 86.5769 85.5766 88.3399 85.3834L88.3401 121.644ZM69.0466 91.2784C69.0466 102.642 59.7975 111.889 48.4289 111.889C37.0603 111.889 27.8111 102.642 27.8111 91.2784C27.8111 79.9075 37.0603 70.6584 48.4289 70.6584C59.7975 70.6584 69.0466 79.9077 69.0466 91.2784ZM70.6793 79.2332C66.3904 71.3406 58.0254 65.9711 48.4289 65.9711C48.2688 65.9711 48.1141 65.9922 47.9547 65.9952C45.9349 64.1273 43.9608 62.1194 42.0785 59.9561C53.9025 46.3743 68.3644 38.9195 82.9842 38.9195C97.604 38.9195 112.067 46.3743 123.89 59.9561C108.586 77.56 89.3322 84.5284 70.6793 79.2332Z" fill="black"/>
<path d="M82.9842 42.8723C73.5635 42.8723 65.8992 50.5351 65.8992 59.9561C65.8992 69.377 73.5632 77.042 82.9842 77.042C92.4037 77.042 100.068 69.3768 100.068 59.9561C100.068 50.5354 92.4039 42.8723 82.9842 42.8723ZM82.9842 72.3545C76.1486 72.3545 70.5867 66.7928 70.5867 59.9561C70.5867 53.1217 76.1484 47.5598 82.9842 47.5598C89.82 47.5598 95.3805 53.1215 95.3805 59.9561C95.3805 66.7928 89.8197 72.3545 82.9842 72.3545Z" fill="black"/>
<path d="M82.9842 51.5927C78.371 51.5927 74.6187 55.3441 74.6187 59.9561C74.6187 64.5681 78.3712 68.3216 82.9842 68.3216C87.5962 68.3216 91.3486 64.5679 91.3486 59.9561C91.3486 55.3443 87.5962 51.5927 82.9842 51.5927ZM82.9842 63.6341C80.9564 63.6341 79.3062 61.9839 79.3062 59.9561C79.3062 57.9283 80.9564 56.2802 82.9842 56.2802C85.012 56.2802 86.6611 57.928 86.6611 59.9561C86.6611 61.9841 85.0122 63.6341 82.9842 63.6341Z" fill="black"/>
<path d="M48.7836 88.8592C45.4752 88.2686 45.339 86.9069 45.4785 85.5588C45.7452 83.8445 47.765 83.3317 48.9746 83.4234C49.7905 83.4782 51.1628 83.7897 51.1834 85.2339C51.2017 86.5272 52.1985 87.4792 53.5604 87.5435C54.8546 87.5252 55.8894 86.4609 55.8709 85.1655C55.8273 82.1247 53.7929 79.7458 50.7725 78.9855V77.7405C50.7725 76.4451 49.723 75.3967 48.4288 75.3967C47.1346 75.3967 46.085 76.4451 46.085 77.7405V79.1491C43.5493 79.9317 41.3117 81.8427 40.831 84.9548C40.5519 87.6121 41.1069 92.2539 48.0453 93.4874C51.7853 94.0138 51.7796 95.7236 51.7773 96.6482C51.7773 97.2274 51.5987 97.6874 51.2314 98.0535C50.6478 98.6371 49.6154 98.969 48.3807 98.969C48.366 98.9713 48.351 98.969 48.3338 98.969C46.2978 98.969 45.0985 97.8932 44.9532 95.9364C44.8583 94.6455 43.7206 93.6658 42.4435 93.7734C41.1526 93.8695 40.1832 94.9933 40.2795 96.2842C40.5481 99.9182 42.8049 102.534 46.0853 103.356V104.805C46.0853 106.101 47.1348 107.149 48.429 107.149C49.7232 107.149 50.7728 106.101 50.7728 104.805V103.354C52.2542 103.003 53.5618 102.349 54.5413 101.372C55.8001 100.118 56.465 98.4836 56.465 96.6548C56.4716 94.1486 55.4727 89.8 48.7836 88.8592Z" fill="black"/>
<path d="M49.7127 131.237H43.9963C42.7021 131.237 41.6526 132.285 41.6526 133.581C41.6526 134.876 42.7021 135.924 43.9963 135.924H49.7127C51.007 135.924 52.0565 134.876 52.0565 133.581C52.0565 132.285 51.0072 131.237 49.7127 131.237Z" fill="black"/>
</svg>
