<svg width="128" height="146" viewBox="0 0 128 146" fill="none" xmlns="http://www.w3.org/2000/svg">
<path d="M37.9314 14.698H55.6183C56.9125 14.698 57.962 13.6485 57.962 12.3542C57.962 11.06 56.9125 10.0105 55.6183 10.0105H37.9314C36.6372 10.0105 35.5876 11.06 35.5876 12.3542C35.5876 13.6485 36.6372 14.698 37.9314 14.698Z" fill="black"/>
<path d="M99.7593 52.6832H98.1205V47.1351C98.1205 41.5028 96.3261 37.4774 92.942 35.0746V12.186C92.942 5.65609 87.6296 0.34375 81.1009 0.34375H12.4478C5.91902 0.34375 0.606445 5.65609 0.606445 12.186V133.814C0.606445 140.344 5.91902 145.656 12.4478 145.656H81.1009C87.6296 145.656 92.942 140.344 92.942 133.814V91.0295C96.3259 88.627 98.1205 84.6016 98.1205 78.9691V73.4209H99.7593C105.479 73.4209 110.132 68.7712 110.132 63.0559C110.132 57.3365 105.479 52.6832 99.7593 52.6832ZM12.4478 5.03125H81.1009C85.0457 5.03125 88.2545 8.24125 88.2545 12.186V19.6773H5.29395V12.186C5.29395 8.24125 8.50301 5.03125 12.4478 5.03125ZM81.1009 140.969H12.4478C8.50301 140.969 5.29418 137.759 5.29418 133.814V126.331H88.2547V133.814C88.2545 137.759 85.0457 140.969 81.1009 140.969ZM88.2545 121.643H5.29395V24.3648H88.2545V33.0473C86.7976 32.7058 85.2376 32.4752 83.4697 32.4752C76.577 32.4752 72.6997 36.7586 69.2779 40.5386C66.5999 43.4969 64.2871 46.0513 60.981 46.0513H50.9057C41.5295 46.0513 33.9008 53.68 33.9008 63.0562C33.9008 69.314 37.3117 74.7789 42.3636 77.729V101.298C42.3601 103.962 42.3557 107.279 44.5724 109.497C45.8781 110.805 47.7172 111.469 50.038 111.469H61.2543C65.4864 111.469 68.9286 108.023 68.9286 103.787C68.9286 100.271 66.5539 97.3002 63.3245 96.3951V91.7936C66.4956 91.6598 69.6845 90.9759 71.1941 87.6222C73.2332 89.7379 75.5554 91.7338 78.6004 92.8066C78.6053 92.8087 78.61 92.8105 78.6149 92.8127C80.0586 93.3194 81.6545 93.6292 83.4697 93.6292C85.2376 93.6292 86.7976 93.3986 88.2545 93.0571V121.643ZM72.7536 82.4195C70.2222 79.6239 67.3909 76.5377 63.325 75.6435V50.4609C67.3909 49.5667 70.2224 46.4805 72.7536 43.6848C74.1889 42.0993 75.5924 40.5677 77.1756 39.3801V86.7243C75.5924 85.537 74.1887 84.0053 72.7536 82.4195ZM58.6372 75.3655H50.9057C44.1137 75.3655 38.5883 69.8437 38.5883 63.0562C38.5883 56.2642 44.1135 50.7388 50.9057 50.7388H58.6372V75.3655ZM47.0514 79.5958C48.2922 79.8848 49.5784 80.053 50.9057 80.053H58.6372V98.4552C58.6372 99.7495 59.6868 100.799 60.981 100.799H61.2545C62.9012 100.799 64.2414 102.139 64.2414 103.787C64.2414 105.438 62.9012 106.782 61.2545 106.782H50.0382C49.0072 106.782 48.2839 106.582 47.889 106.186C47.0455 105.341 47.049 103.103 47.0514 101.305V79.5958ZM63.3247 80.5126C64.7828 81.0962 66.0768 82.1915 67.3789 83.5218C67.2447 86.3481 66.3566 86.9793 63.3247 87.1028V80.5126ZM93.433 78.9693C93.433 85.9593 90.4529 88.9417 83.4697 88.9417C82.907 88.9417 82.3759 88.8902 81.8631 88.8084V37.2962C82.3759 37.2145 82.907 37.1629 83.4697 37.1629C90.4529 37.1629 93.433 40.1453 93.433 47.1353V78.9693ZM99.7593 68.7337H98.1205V57.3709H99.7593C102.894 57.3709 105.445 59.9219 105.445 63.0564C105.445 66.1874 102.894 68.7337 99.7593 68.7337Z" fill="black"/>
<path d="M125.05 60.7124H116.034C114.74 60.7124 113.69 61.7619 113.69 63.0562C113.69 64.3504 114.74 65.3999 116.034 65.3999H125.05C126.344 65.3999 127.393 64.3504 127.393 63.0562C127.393 61.7619 126.344 60.7124 125.05 60.7124Z" fill="black"/>
<path d="M113.56 74.7864C112.649 73.8697 111.163 73.8674 110.246 74.7796C109.328 75.6927 109.325 77.177 110.239 78.0939L116.605 84.4855C117.063 84.9456 117.664 85.1755 118.266 85.1755C118.864 85.1755 119.463 84.9477 119.919 84.4923C120.837 83.5792 120.839 82.0949 119.926 81.178L113.56 74.7864Z" fill="black"/>
<path d="M111.401 52.0082C112.002 52.0082 112.604 51.7782 113.062 51.3182L119.428 44.9265C120.341 44.0099 120.339 42.5256 119.421 41.6122C118.506 40.6991 117.021 40.6991 116.107 41.619L109.741 48.0107C108.828 48.9273 108.83 50.4116 109.748 51.325C110.204 51.7803 110.803 52.0082 111.401 52.0082Z" fill="black"/>
<path d="M49.6285 131.238H43.9121C42.6179 131.238 41.5684 132.287 41.5684 133.582C41.5684 134.876 42.6179 135.925 43.9121 135.925H49.6285C50.9227 135.925 51.9723 134.876 51.9723 133.582C51.9723 132.287 50.9227 131.238 49.6285 131.238Z" fill="black"/>
</svg>
