<svg width="146" height="142" viewBox="0 0 146 142" fill="none" xmlns="http://www.w3.org/2000/svg">
<path d="M19.4348 66.2942H41.4909C42.7851 66.2942 43.8347 65.2458 43.8347 63.9504C43.8347 62.655 42.7851 61.6067 41.4909 61.6067H19.4348C18.1406 61.6067 17.0911 62.655 17.0911 63.9504C17.0911 65.2458 18.1406 66.2942 19.4348 66.2942Z" fill="black"/>
<path d="M57.7005 75.2251H19.4348C18.1406 75.2251 17.0911 76.2735 17.0911 77.5688C17.0911 78.8642 18.1406 79.9126 19.4348 79.9126H57.7005C58.9947 79.9126 60.0443 78.8642 60.0443 77.5688C60.0443 76.2735 58.9947 75.2251 57.7005 75.2251Z" fill="black"/>
<path d="M57.7005 88.8436H19.4348C18.1406 88.8436 17.0911 89.892 17.0911 91.1874C17.0911 92.4828 18.1406 93.5311 19.4348 93.5311H57.7005C58.9947 93.5311 60.0443 92.4828 60.0443 91.1874C60.0443 89.892 58.9947 88.8436 57.7005 88.8436Z" fill="black"/>
<path d="M140.383 87.218V36.9219C140.383 31.1562 135.695 26.4922 129.953 26.4922H98.6641C97.4688 11.9375 85.2109 0.429688 70.3516 0.429688C55.4922 0.429688 43.2578 11.9375 42.0625 26.4922H10.7734C5.03125 26.4922 0.34375 31.1562 0.34375 36.9219V113.609C0.34375 119.375 5.03125 124.039 10.7734 124.039H50.2122L45.3154 136.872H36.7509C35.4566 136.872 34.4071 137.921 34.4071 139.216C34.4071 140.511 35.4566 141.56 36.7509 141.56H103.963C105.257 141.56 106.307 140.511 106.307 139.216C106.307 137.921 105.257 136.872 103.963 136.872H95.3995L90.502 124.039H111.435C114.543 129.673 120.539 133.501 127.415 133.501C137.474 133.501 145.656 125.318 145.656 115.259V100.027C145.656 95.0382 143.639 90.5143 140.383 87.218ZM129.953 31.1797C133.117 31.1797 135.695 33.7578 135.695 36.9219V83.7952C133.871 82.861 131.873 82.2282 129.759 81.9554V75.4428C129.759 71.3527 126.51 68.1507 122.363 68.1507H77.0547C74.8884 68.1507 72.7014 66.9352 72.7014 64.223V57.106C86.4829 55.9688 97.5327 44.9584 98.6643 31.1799L129.953 31.1797ZM46.7734 26.4922C47.9453 14.5156 58.0938 5.11719 70.3516 5.11719C82.6328 5.11719 92.7812 14.5154 93.9531 26.4922C94.0234 27.2656 94.0703 28.0391 94.0703 28.8359C94.0703 29.6328 94.0234 30.4062 93.9531 31.1797C92.7812 43.1328 82.6328 52.5313 70.3516 52.5313C58.0938 52.5313 47.9453 43.1328 46.7734 31.1797C46.7031 30.4062 46.6562 29.6328 46.6562 28.8359C46.6562 28.0391 46.7031 27.2656 46.7734 26.4922ZM50.3315 136.872L55.2283 124.039H85.4859L90.3836 136.872H50.3315ZM10.7734 119.352C7.60937 119.352 5.03125 116.797 5.03125 113.609V110.464H109.175V115.259C109.175 116.668 109.351 118.034 109.655 119.352H10.7734ZM109.175 100.027V105.776H5.03125V36.9219C5.03125 33.7578 7.60937 31.1797 10.7734 31.1797H42.0625C43.1945 44.9619 54.2294 55.9745 68.0139 57.1063V64.2228C68.0139 69.2148 71.8157 72.838 77.0547 72.838H122.363C123.907 72.838 125.072 73.9571 125.072 75.4426V81.9552C116.119 83.1113 109.175 90.7655 109.175 100.027ZM125.072 86.6916V100.997H113.862V100.027C113.862 93.3545 118.714 87.8068 125.072 86.6916ZM140.969 115.259C140.969 122.732 134.889 128.813 127.416 128.813C121.912 128.813 117.173 125.51 115.053 120.786C115.053 120.785 115.053 120.787 115.053 120.786C114.295 119.097 113.862 117.228 113.862 115.259V105.685H140.969V115.259ZM140.969 100.997H129.759V86.6916C136.117 87.8068 140.969 93.3545 140.969 100.027V100.997Z" fill="black"/>
<path d="M70.3701 36.4686C70.3563 36.4662 70.346 36.4662 70.3347 36.4686C68.2839 36.4686 67.1224 35.4272 66.9759 33.4564C66.8798 32.1654 65.748 31.1972 64.465 31.2933C63.1741 31.3894 62.2059 32.5133 62.302 33.8042C62.5699 37.4176 64.8105 40.0222 68.0697 40.85V42.2773C68.0697 43.5727 69.1193 44.6211 70.4135 44.6211C71.7077 44.6211 72.7572 43.5727 72.7572 42.2773V40.8516C74.2293 40.5012 75.5296 39.8513 76.5039 38.8808C77.7571 37.6287 78.4197 36.0038 78.4197 34.1773C78.4197 31.6803 77.415 27.3521 70.7704 26.416C67.4941 25.8277 67.3568 24.4775 67.4918 23.1476C67.7191 21.6861 69.2292 21.1008 70.4114 21.0324C70.4107 21.0324 70.4121 21.0324 70.4114 21.0324C70.4137 21.0324 70.4177 21.0315 70.4203 21.0315C70.6087 21.0209 70.7901 21.0207 70.9549 21.0352C71.7616 21.0924 73.1179 21.3992 73.1383 22.8204C73.1566 24.1137 74.2415 25.1023 75.5163 25.13C76.8105 25.1117 77.8441 24.0474 77.8258 22.752C77.7822 19.7281 75.7603 17.36 72.7572 16.6008V15.3748C72.7572 14.0794 71.7077 13.0311 70.4135 13.0311C69.1193 13.0311 68.0697 14.0794 68.0697 15.3748V16.7616C65.5476 17.5411 63.3243 19.4438 62.8443 22.5455C62.5708 25.189 63.1305 29.8079 70.03 31.044C73.4461 31.527 73.7322 32.914 73.7322 34.1773C73.7322 34.7473 73.556 35.2004 73.1932 35.5597C72.6154 36.139 71.5912 36.4686 70.3701 36.4686Z" fill="black"/>
</svg>
