<svg width="146" height="127" viewBox="0 0 146 127" fill="none" xmlns="http://www.w3.org/2000/svg">
<path d="M138.865 104.051V35.502C138.865 29.1321 133.683 23.9503 127.313 23.9503H63.7755V8.4068C63.7755 3.77086 60.0035 0 55.3688 0H22.3641C17.727 0 13.9549 3.77086 13.9549 8.4068V24.6804C9.50555 26.3433 6.44062 30.6195 6.44062 35.502V104.051C2.81883 104.515 0 107.584 0 111.33V118.838C0 122.903 3.30727 126.21 7.37227 126.21H137.94C142.005 126.21 145.312 122.903 145.312 118.838V111.33C145.312 107.581 142.49 104.511 138.865 104.051ZM127.313 28.6376C131.099 28.6376 134.177 31.7173 134.177 35.5017V103.957H128.51V37.579C128.51 36.2848 127.462 35.2352 126.166 35.2352H63.7755V28.6378L127.313 28.6376ZM21.4828 103.957V43.7634C21.7765 43.7946 22.0624 43.8525 22.3641 43.8525H31.7299L39.3928 52.5511C40.6973 54.2116 41.9838 54.6248 42.9405 54.6248C43.5952 54.6248 44.0941 54.4315 44.3391 54.3112C45.9 53.5526 46.6027 51.717 46.1655 49.5916L45.9253 43.8525H55.369C58.3552 43.8525 60.9659 42.2761 62.4577 39.9225H123.823V103.957L21.4828 103.957ZM90.7739 108.645C90.5538 110.631 88.8837 112.186 86.8399 112.186H58.4632C56.4195 112.186 54.7514 110.631 54.5316 108.645H90.7739ZM18.6424 8.4068C18.6424 6.35602 20.3109 4.6875 22.3641 4.6875H55.3688C57.4195 4.6875 59.088 6.35602 59.088 8.4068V35.4457C59.088 37.4965 57.4195 39.165 55.3688 39.165H43.4805C42.8419 39.165 42.2309 39.4259 41.7891 39.8871C41.3473 40.3472 41.1115 40.9685 41.1391 41.6072L41.3955 47.7389L34.5497 39.9605C34.1034 39.4547 33.4624 39.165 32.7895 39.165H22.3641C20.3109 39.165 18.6424 37.4965 18.6424 35.4457V8.4068ZM13.9549 29.9798V35.4457C13.9549 37.9383 15.0663 40.1562 16.7953 41.6969V103.957H11.1281V35.502C11.1281 33.2555 12.2351 31.2422 13.9549 29.9798ZM140.625 118.838C140.625 120.319 139.421 121.523 137.94 121.523H7.37227C5.89148 121.523 4.6875 120.319 4.6875 118.838V111.33C4.6875 109.85 5.89148 108.645 7.37227 108.645H49.8441C50.0761 113.217 53.8355 116.874 58.4634 116.874H86.8402C91.4702 116.874 95.2296 113.217 95.4616 108.645H137.94C139.421 108.645 140.625 109.85 140.625 111.33V118.838Z" fill="black"/>
<path d="M112.917 112.455C111.793 113.097 111.401 114.529 112.044 115.653L112.067 115.693C112.498 116.445 113.274 116.859 114.079 116.859C114.478 116.859 114.88 116.757 115.254 116.546C116.377 115.903 116.757 114.451 116.114 113.328C115.471 112.204 114.038 111.812 112.917 112.455Z" fill="black"/>
<path d="M121.41 112.456C120.287 113.097 119.895 114.529 120.538 115.653L120.561 115.693C120.992 116.445 121.767 116.859 122.573 116.859C122.971 116.859 123.374 116.757 123.747 116.546C124.871 115.903 125.251 114.451 124.608 113.328C123.967 112.204 122.532 111.812 121.41 112.456Z" fill="black"/>
<path d="M88.4218 60.9741H85.3433C86.6387 57.6518 86.481 54.3663 86.0415 51.2442C85.3571 46.3153 82.2008 44.0402 79.3742 43.9727C76.4331 43.9076 73.1096 46.0898 72.16 51.1366C71.7296 53.445 69.8825 60.9741 64.1835 60.9741H59.147C58.5725 59.6405 57.2478 58.7034 55.7057 58.7034H48.8162C46.7495 58.7034 45.0671 60.3846 45.0671 62.4513V90.5156C45.0671 92.5823 46.7495 94.2635 48.8162 94.2635H55.7057C57.2504 94.2635 58.5779 93.3237 59.1505 91.9863C60.9625 91.9934 61.2857 92.291 62.0434 93.0023C63.9889 94.8335 66.2343 96.3485 74.0321 96.3485H85.8538C89.6441 96.3485 92.9354 93.8571 95.1212 89.3332C96.8401 85.773 97.8242 81.0431 97.8242 76.3544C97.8242 67.012 94.1347 60.9741 88.4218 60.9741ZM49.7544 63.3912H54.7646V89.5765H49.7544V63.3912ZM90.8982 87.2955C89.9368 89.2868 88.2821 91.6615 85.8538 91.6615H74.0321C67.4586 91.6615 66.2867 90.5594 65.2546 89.5877C63.9728 88.3819 62.6228 87.386 59.4524 87.3119V65.6616H64.1835C73.4945 65.6616 76.1701 55.2028 76.7673 51.9996C77.2044 49.673 78.2572 48.5951 79.2622 48.6591C80.1046 48.6797 81.0934 49.6856 81.3999 51.8932C81.8485 55.0987 82.0705 58.5112 79.4727 61.8884C78.928 62.5966 78.834 63.5524 79.2278 64.3535C79.6236 65.1546 80.4385 65.6616 81.3313 65.6616H88.4221C91.5189 65.6616 93.137 71.0414 93.137 76.3549C93.1367 80.3616 92.3218 84.3487 90.8982 87.2955Z" fill="black"/>
<path d="M37.2506 33.4819C37.7015 33.9098 38.2827 34.1238 38.8619 34.1238C39.441 34.1238 40.0223 33.9098 40.4732 33.4819L47.2893 27.0251C50.7295 23.7659 52.2058 19.5396 51.2376 15.7195C50.5075 12.8355 48.4202 10.6052 45.7902 9.90024C43.5128 9.29368 41.0753 9.84868 38.8619 11.4373C36.6508 9.84657 34.1974 9.29157 31.9335 9.90024C29.3036 10.6052 27.2139 12.8355 26.4838 15.7207C25.5156 19.5408 26.992 23.767 30.4321 27.0251L37.2506 33.4819ZM31.0272 16.872C31.3476 15.612 32.1395 14.6977 33.1466 14.4274C33.355 14.3726 33.5702 14.344 33.7921 14.344C34.8426 14.344 36.0236 14.9723 37.1819 16.1625C38.0655 17.0688 39.6583 17.0688 40.5419 16.1625C41.9448 14.7206 43.3914 14.1094 44.5748 14.4277C45.5819 14.6977 46.3738 15.611 46.6942 16.871C47.2389 19.0238 46.2571 21.547 44.0666 23.622L38.8619 28.552L33.6548 23.622C31.4643 21.547 30.4825 19.0235 31.0272 16.872Z" fill="black"/>
</svg>
