<svg width="106" height="39" viewBox="0 0 106 39" fill="none" xmlns="http://www.w3.org/2000/svg">
<path d="M20.9432 17.1477H19.1705C19.1023 16.7689 18.9754 16.4356 18.7898 16.1477C18.6042 15.8598 18.3769 15.6155 18.108 15.4148C17.839 15.214 17.5379 15.0625 17.2045 14.9602C16.875 14.858 16.5246 14.8068 16.1534 14.8068C15.483 14.8068 14.8826 14.9754 14.3523 15.3125C13.8258 15.6496 13.4091 16.1439 13.1023 16.7955C12.7992 17.447 12.6477 18.2424 12.6477 19.1818C12.6477 20.1288 12.7992 20.928 13.1023 21.5795C13.4091 22.2311 13.8277 22.7235 14.358 23.0568C14.8883 23.3902 15.4848 23.5568 16.1477 23.5568C16.5152 23.5568 16.8636 23.5076 17.1932 23.4091C17.5265 23.3068 17.8277 23.1572 18.0966 22.9602C18.3655 22.7633 18.5928 22.5227 18.7784 22.2386C18.9678 21.9508 19.0985 21.6212 19.1705 21.25L20.9432 21.2557C20.8485 21.8277 20.6648 22.3542 20.392 22.8352C20.1231 23.3125 19.7765 23.7254 19.3523 24.0739C18.9318 24.4186 18.4508 24.6856 17.9091 24.875C17.3674 25.0644 16.7765 25.1591 16.1364 25.1591C15.1288 25.1591 14.2311 24.9205 13.4432 24.4432C12.6553 23.9621 12.0341 23.2746 11.5795 22.3807C11.1288 21.4867 10.9034 20.4205 10.9034 19.1818C10.9034 17.9394 11.1307 16.8731 11.5852 15.983C12.0398 15.089 12.661 14.4034 13.4489 13.9261C14.2367 13.4451 15.1326 13.2045 16.1364 13.2045C16.7538 13.2045 17.3295 13.2936 17.8636 13.4716C18.4015 13.6458 18.8845 13.9034 19.3125 14.2443C19.7405 14.5814 20.0947 14.9943 20.375 15.483C20.6553 15.9678 20.8447 16.5227 20.9432 17.1477ZM26.5838 25.1761C25.7656 25.1761 25.0516 24.9886 24.4418 24.6136C23.8319 24.2386 23.3584 23.714 23.0213 23.0398C22.6842 22.3655 22.5156 21.5777 22.5156 20.6761C22.5156 19.7708 22.6842 18.9792 23.0213 18.3011C23.3584 17.6231 23.8319 17.0966 24.4418 16.7216C25.0516 16.3466 25.7656 16.1591 26.5838 16.1591C27.402 16.1591 28.116 16.3466 28.7259 16.7216C29.3357 17.0966 29.8092 17.6231 30.1463 18.3011C30.4834 18.9792 30.652 19.7708 30.652 20.6761C30.652 21.5777 30.4834 22.3655 30.1463 23.0398C29.8092 23.714 29.3357 24.2386 28.7259 24.6136C28.116 24.9886 27.402 25.1761 26.5838 25.1761ZM26.5895 23.75C27.1198 23.75 27.5592 23.6098 27.9077 23.3295C28.2562 23.0492 28.5137 22.6761 28.6804 22.2102C28.8509 21.7443 28.9361 21.2311 28.9361 20.6705C28.9361 20.1136 28.8509 19.6023 28.6804 19.1364C28.5137 18.6667 28.2562 18.2898 27.9077 18.0057C27.5592 17.7216 27.1198 17.5795 26.5895 17.5795C26.0554 17.5795 25.6122 17.7216 25.2599 18.0057C24.9115 18.2898 24.652 18.6667 24.4815 19.1364C24.3149 19.6023 24.2315 20.1136 24.2315 20.6705C24.2315 21.2311 24.3149 21.7443 24.4815 22.2102C24.652 22.6761 24.9115 23.0492 25.2599 23.3295C25.6122 23.6098 26.0554 23.75 26.5895 23.75ZM34.2472 19.8182V25H32.5483V16.2727H34.179V17.6932H34.2869C34.4877 17.2311 34.8021 16.8598 35.2301 16.5795C35.6619 16.2992 36.2055 16.1591 36.8608 16.1591C37.4555 16.1591 37.9763 16.2841 38.4233 16.5341C38.8703 16.7803 39.2169 17.1477 39.4631 17.6364C39.7093 18.125 39.8324 18.7292 39.8324 19.4489V25H38.1335V19.6534C38.1335 19.0208 37.9688 18.5265 37.6392 18.1705C37.3097 17.8106 36.857 17.6307 36.2812 17.6307C35.8873 17.6307 35.5369 17.7159 35.2301 17.8864C34.9271 18.0568 34.6866 18.3068 34.5085 18.6364C34.3343 18.9621 34.2472 19.3561 34.2472 19.8182ZM46.1847 16.2727V17.6364H41.4176V16.2727H46.1847ZM42.696 14.1818H44.3949V22.4375C44.3949 22.767 44.4441 23.0152 44.5426 23.1818C44.6411 23.3447 44.768 23.4564 44.9233 23.517C45.0824 23.5739 45.2547 23.6023 45.4403 23.6023C45.5767 23.6023 45.696 23.5928 45.7983 23.5739C45.9006 23.5549 45.9801 23.5398 46.0369 23.5284L46.3438 24.9318C46.2453 24.9697 46.1051 25.0076 45.9233 25.0455C45.7415 25.0871 45.5142 25.1098 45.2415 25.1136C44.7945 25.1212 44.3778 25.0417 43.9915 24.875C43.6051 24.7083 43.2926 24.4508 43.054 24.1023C42.8153 23.7538 42.696 23.3163 42.696 22.7898V14.1818ZM50.6037 25.1932C50.0507 25.1932 49.5507 25.0909 49.1037 24.8864C48.6567 24.678 48.3026 24.3769 48.0412 23.983C47.7836 23.589 47.6548 23.1061 47.6548 22.5341C47.6548 22.0417 47.7495 21.6364 47.9389 21.3182C48.1283 21 48.384 20.7481 48.706 20.5625C49.0279 20.3769 49.3878 20.2367 49.7855 20.142C50.1832 20.0473 50.5885 19.9754 51.0014 19.9261C51.5241 19.8655 51.9484 19.8163 52.2741 19.7784C52.5999 19.7367 52.8366 19.6705 52.9844 19.5795C53.1321 19.4886 53.206 19.3409 53.206 19.1364V19.0966C53.206 18.6004 53.0658 18.2159 52.7855 17.9432C52.509 17.6705 52.0961 17.5341 51.5469 17.5341C50.9749 17.5341 50.5241 17.661 50.1946 17.9148C49.8688 18.1648 49.6435 18.4432 49.5185 18.75L47.9219 18.3864C48.1113 17.8561 48.3878 17.428 48.7514 17.1023C49.1188 16.7727 49.5412 16.5341 50.0185 16.3864C50.4957 16.2348 50.9976 16.1591 51.5241 16.1591C51.8726 16.1591 52.242 16.2008 52.6321 16.2841C53.026 16.3636 53.3935 16.5114 53.7344 16.7273C54.0791 16.9432 54.3613 17.2519 54.581 17.6534C54.8007 18.0511 54.9105 18.5682 54.9105 19.2045V25H53.2514V23.8068H53.1832C53.0734 24.0265 52.9086 24.2424 52.6889 24.4545C52.4692 24.6667 52.187 24.8428 51.8423 24.983C51.4976 25.1231 51.0848 25.1932 50.6037 25.1932ZM50.973 23.8295C51.4427 23.8295 51.8442 23.7367 52.1776 23.5511C52.5147 23.3655 52.7704 23.1231 52.9446 22.8239C53.1226 22.5208 53.2116 22.197 53.2116 21.8523V20.7273C53.151 20.7879 53.0336 20.8447 52.8594 20.8977C52.6889 20.947 52.4938 20.9905 52.2741 21.0284C52.0545 21.0625 51.8404 21.0947 51.6321 21.125C51.4238 21.1515 51.2495 21.1742 51.1094 21.1932C50.7798 21.2348 50.4787 21.3049 50.206 21.4034C49.937 21.5019 49.7211 21.6439 49.5582 21.8295C49.3991 22.0114 49.3196 22.2538 49.3196 22.5568C49.3196 22.9773 49.4749 23.2955 49.7855 23.5114C50.0961 23.7235 50.492 23.8295 50.973 23.8295ZM60.8494 25.1761C60.0047 25.1761 59.2775 24.9848 58.6676 24.6023C58.0616 24.2159 57.5956 23.6837 57.2699 23.0057C56.9441 22.3277 56.7812 21.5511 56.7812 20.6761C56.7812 19.7898 56.9479 19.0076 57.2812 18.3295C57.6146 17.6477 58.0843 17.1155 58.6903 16.733C59.2964 16.3504 60.0104 16.1591 60.8324 16.1591C61.4953 16.1591 62.0862 16.2822 62.6051 16.5284C63.1241 16.7708 63.5426 17.1117 63.8608 17.5511C64.1828 17.9905 64.3741 18.5038 64.4347 19.0909H62.7812C62.6903 18.6818 62.482 18.3295 62.1562 18.0341C61.8343 17.7386 61.4025 17.5909 60.8608 17.5909C60.3873 17.5909 59.9725 17.7159 59.6165 17.9659C59.2642 18.2121 58.9896 18.5644 58.7926 19.0227C58.5956 19.4773 58.4972 20.0152 58.4972 20.6364C58.4972 21.2727 58.5938 21.822 58.7869 22.2841C58.9801 22.7462 59.2528 23.1042 59.6051 23.358C59.9612 23.6117 60.3797 23.7386 60.8608 23.7386C61.1828 23.7386 61.4744 23.6799 61.7358 23.5625C62.0009 23.4413 62.2225 23.2689 62.4006 23.0455C62.5824 22.822 62.7093 22.553 62.7812 22.2386H64.4347C64.3741 22.803 64.1903 23.3068 63.8835 23.75C63.5767 24.1932 63.1657 24.5417 62.6506 24.7955C62.1392 25.0492 61.5388 25.1761 60.8494 25.1761ZM70.3253 16.2727V17.6364H65.5582V16.2727H70.3253ZM66.8366 14.1818H68.5355V22.4375C68.5355 22.767 68.5848 23.0152 68.6832 23.1818C68.7817 23.3447 68.9086 23.4564 69.0639 23.517C69.223 23.5739 69.3954 23.6023 69.581 23.6023C69.7173 23.6023 69.8366 23.5928 69.9389 23.5739C70.0412 23.5549 70.1207 23.5398 70.1776 23.5284L70.4844 24.9318C70.3859 24.9697 70.2457 25.0076 70.0639 25.0455C69.8821 25.0871 69.6548 25.1098 69.3821 25.1136C68.9351 25.1212 68.5185 25.0417 68.1321 24.875C67.7457 24.7083 67.4332 24.4508 67.1946 24.1023C66.956 23.7538 66.8366 23.3163 66.8366 22.7898V14.1818ZM84.0582 13.3636H85.8196V21.017C85.8196 21.8314 85.6283 22.553 85.2457 23.1818C84.8632 23.8068 84.3253 24.2992 83.6321 24.6591C82.9389 25.0152 82.1264 25.1932 81.1946 25.1932C80.2666 25.1932 79.456 25.0152 78.7628 24.6591C78.0696 24.2992 77.5317 23.8068 77.1491 23.1818C76.7666 22.553 76.5753 21.8314 76.5753 21.017V13.3636H78.331V20.875C78.331 21.4015 78.4465 21.8693 78.6776 22.2784C78.9124 22.6875 79.2438 23.0095 79.6719 23.2443C80.0999 23.4754 80.6075 23.5909 81.1946 23.5909C81.7855 23.5909 82.295 23.4754 82.723 23.2443C83.1548 23.0095 83.4844 22.6875 83.7116 22.2784C83.9427 21.8693 84.0582 21.4015 84.0582 20.875V13.3636ZM94.7756 18.4034L93.2358 18.6761C93.1714 18.4792 93.0691 18.2917 92.929 18.1136C92.7926 17.9356 92.607 17.7898 92.3722 17.6761C92.1373 17.5625 91.8438 17.5057 91.4915 17.5057C91.0104 17.5057 90.6089 17.6136 90.2869 17.8295C89.965 18.0417 89.804 18.3163 89.804 18.6534C89.804 18.9451 89.9119 19.1799 90.1278 19.358C90.3438 19.536 90.6922 19.6818 91.1733 19.7955L92.5597 20.1136C93.3627 20.2992 93.9612 20.5852 94.3551 20.9716C94.7491 21.358 94.946 21.8598 94.946 22.4773C94.946 23 94.7945 23.4659 94.4915 23.875C94.1922 24.2803 93.7737 24.5985 93.2358 24.8295C92.7017 25.0606 92.0824 25.1761 91.3778 25.1761C90.4006 25.1761 89.6032 24.9678 88.9858 24.5511C88.3684 24.1307 87.9896 23.5341 87.8494 22.7614L89.4915 22.5114C89.5938 22.9394 89.804 23.2633 90.1222 23.483C90.4403 23.6989 90.8551 23.8068 91.3665 23.8068C91.9233 23.8068 92.3684 23.6913 92.7017 23.4602C93.035 23.2254 93.2017 22.9394 93.2017 22.6023C93.2017 22.3295 93.0994 22.1004 92.8949 21.9148C92.6941 21.7292 92.3854 21.589 91.9688 21.4943L90.4915 21.1705C89.6771 20.9848 89.0748 20.6894 88.6847 20.2841C88.2983 19.8788 88.1051 19.3655 88.1051 18.7443C88.1051 18.2292 88.2491 17.7784 88.5369 17.392C88.8248 17.0057 89.2225 16.7045 89.7301 16.4886C90.2377 16.2689 90.8191 16.1591 91.4744 16.1591C92.4176 16.1591 93.16 16.3636 93.7017 16.7727C94.2434 17.178 94.6013 17.7216 94.7756 18.4034Z" fill="white"/>
</svg>
