<svg width="66" height="39" viewBox="0 0 66 39" fill="none" xmlns="http://www.w3.org/2000/svg">
<path d="M11.2784 25V13.3636H13.0341V18.4205H18.8352V13.3636H20.5966V25H18.8352V19.9261H13.0341V25H11.2784ZM26.6932 25.1761C25.875 25.1761 25.161 24.9886 24.5511 24.6136C23.9413 24.2386 23.4678 23.714 23.1307 23.0398C22.7936 22.3655 22.625 21.5777 22.625 20.6761C22.625 19.7708 22.7936 18.9792 23.1307 18.3011C23.4678 17.6231 23.9413 17.0966 24.5511 16.7216C25.161 16.3466 25.875 16.1591 26.6932 16.1591C27.5114 16.1591 28.2254 16.3466 28.8352 16.7216C29.4451 17.0966 29.9186 17.6231 30.2557 18.3011C30.5928 18.9792 30.7614 19.7708 30.7614 20.6761C30.7614 21.5777 30.5928 22.3655 30.2557 23.0398C29.9186 23.714 29.4451 24.2386 28.8352 24.6136C28.2254 24.9886 27.5114 25.1761 26.6932 25.1761ZM26.6989 23.75C27.2292 23.75 27.6686 23.6098 28.017 23.3295C28.3655 23.0492 28.6231 22.6761 28.7898 22.2102C28.9602 21.7443 29.0455 21.2311 29.0455 20.6705C29.0455 20.1136 28.9602 19.6023 28.7898 19.1364C28.6231 18.6667 28.3655 18.2898 28.017 18.0057C27.6686 17.7216 27.2292 17.5795 26.6989 17.5795C26.1648 17.5795 25.7216 17.7216 25.3693 18.0057C25.0208 18.2898 24.7614 18.6667 24.5909 19.1364C24.4242 19.6023 24.3409 20.1136 24.3409 20.6705C24.3409 21.2311 24.4242 21.7443 24.5909 22.2102C24.7614 22.6761 25.0208 23.0492 25.3693 23.3295C25.7216 23.6098 26.1648 23.75 26.6989 23.75ZM32.6577 25V16.2727H34.2884V17.6932H34.3963C34.5781 17.2121 34.8755 16.8371 35.2884 16.5682C35.7012 16.2955 36.1955 16.1591 36.7713 16.1591C37.3546 16.1591 37.8433 16.2955 38.2372 16.5682C38.6349 16.8409 38.9285 17.2159 39.1179 17.6932H39.2088C39.4171 17.2273 39.7486 16.8561 40.2031 16.5795C40.6577 16.2992 41.1993 16.1591 41.8281 16.1591C42.6198 16.1591 43.2656 16.4072 43.7656 16.9034C44.2694 17.3996 44.5213 18.1477 44.5213 19.1477V25H42.8224V19.3068C42.8224 18.7159 42.6615 18.2879 42.3395 18.0227C42.0175 17.7576 41.633 17.625 41.1861 17.625C40.633 17.625 40.2031 17.7955 39.8963 18.1364C39.5895 18.4735 39.4361 18.9072 39.4361 19.4375V25H37.7429V19.1989C37.7429 18.7254 37.5952 18.3447 37.2997 18.0568C37.0043 17.7689 36.6198 17.625 36.1463 17.625C35.8243 17.625 35.527 17.7102 35.2543 17.8807C34.9853 18.0473 34.7675 18.2803 34.6009 18.5795C34.438 18.8788 34.3565 19.2254 34.3565 19.6193V25H32.6577ZM50.5597 25.1761C49.6998 25.1761 48.9593 24.9924 48.3381 24.625C47.7206 24.2538 47.2434 23.733 46.9062 23.0625C46.5729 22.3883 46.4062 21.5985 46.4062 20.6932C46.4062 19.7992 46.5729 19.0114 46.9062 18.3295C47.2434 17.6477 47.7131 17.1155 48.3153 16.733C48.9214 16.3504 49.6297 16.1591 50.4403 16.1591C50.9328 16.1591 51.41 16.2405 51.8722 16.4034C52.3343 16.5663 52.7491 16.822 53.1165 17.1705C53.4839 17.5189 53.7737 17.9716 53.9858 18.5284C54.1979 19.0814 54.304 19.7538 54.304 20.5455V21.1477H47.3665V19.875H52.6392C52.6392 19.428 52.5483 19.0322 52.3665 18.6875C52.1847 18.339 51.929 18.0644 51.5994 17.8636C51.2737 17.6629 50.8911 17.5625 50.4517 17.5625C49.9744 17.5625 49.5578 17.6799 49.2017 17.9148C48.8494 18.1458 48.5767 18.4489 48.3835 18.8239C48.1941 19.1951 48.0994 19.5985 48.0994 20.0341V21.0284C48.0994 21.6117 48.2017 22.108 48.4062 22.517C48.6146 22.9261 48.9044 23.2386 49.2756 23.4545C49.6468 23.6667 50.0805 23.7727 50.5767 23.7727C50.8987 23.7727 51.1922 23.7273 51.4574 23.6364C51.7225 23.5417 51.9517 23.4015 52.1449 23.2159C52.3381 23.0303 52.4858 22.8011 52.5881 22.5284L54.196 22.8182C54.0672 23.2917 53.8362 23.7064 53.5028 24.0625C53.1733 24.4148 52.7585 24.6894 52.2585 24.8864C51.7623 25.0795 51.196 25.1761 50.5597 25.1761Z" fill="white"/>
</svg>
