<svg width="97" height="39" viewBox="0 0 97 39" fill="none" xmlns="http://www.w3.org/2000/svg">
<path d="M13.0341 13.3636V25H11.2784V13.3636H13.0341ZM17.1534 19.8182V25H15.4545V16.2727H17.0852V17.6932H17.1932C17.3939 17.2311 17.7083 16.8598 18.1364 16.5795C18.5682 16.2992 19.1117 16.1591 19.767 16.1591C20.3617 16.1591 20.8826 16.2841 21.3295 16.5341C21.7765 16.7803 22.1231 17.1477 22.3693 17.6364C22.6155 18.125 22.7386 18.7292 22.7386 19.4489V25H21.0398V19.6534C21.0398 19.0208 20.875 18.5265 20.5455 18.1705C20.2159 17.8106 19.7633 17.6307 19.1875 17.6307C18.7936 17.6307 18.4432 17.7159 18.1364 17.8864C17.8333 18.0568 17.5928 18.3068 17.4148 18.6364C17.2405 18.9621 17.1534 19.3561 17.1534 19.8182ZM28.2841 25.1705C27.5795 25.1705 26.9508 24.9905 26.3977 24.6307C25.8485 24.267 25.4167 23.75 25.1023 23.0795C24.7917 22.4053 24.6364 21.5966 24.6364 20.6534C24.6364 19.7102 24.7936 18.9034 25.108 18.233C25.4261 17.5625 25.8617 17.0492 26.4148 16.6932C26.9678 16.3371 27.5947 16.1591 28.2955 16.1591C28.8371 16.1591 29.2727 16.25 29.6023 16.4318C29.9356 16.6098 30.1932 16.8182 30.375 17.0568C30.5606 17.2955 30.7045 17.5057 30.8068 17.6875H30.9091V13.3636H32.608V25H30.9489V23.642H30.8068C30.7045 23.8277 30.5568 24.0398 30.3636 24.2784C30.1742 24.517 29.9129 24.7254 29.5795 24.9034C29.2462 25.0814 28.8144 25.1705 28.2841 25.1705ZM28.6591 23.7216C29.1477 23.7216 29.5606 23.5928 29.8977 23.3352C30.2386 23.0739 30.4962 22.7121 30.6705 22.25C30.8485 21.7879 30.9375 21.25 30.9375 20.6364C30.9375 20.0303 30.8504 19.5 30.6761 19.0455C30.5019 18.5909 30.2462 18.2367 29.9091 17.983C29.572 17.7292 29.1553 17.6023 28.6591 17.6023C28.1477 17.6023 27.7216 17.7348 27.3807 18C27.0398 18.2652 26.7822 18.6269 26.608 19.0852C26.4375 19.5436 26.3523 20.0606 26.3523 20.6364C26.3523 21.2197 26.4394 21.7443 26.6136 22.2102C26.7879 22.6761 27.0455 23.0455 27.3864 23.3182C27.7311 23.5871 28.1553 23.7216 28.6591 23.7216ZM40.5611 21.3807V16.2727H42.2656V25H40.5952V23.4886H40.5043C40.3035 23.9545 39.9815 24.3428 39.5384 24.6534C39.099 24.9602 38.5516 25.1136 37.8963 25.1136C37.3357 25.1136 36.8395 24.9905 36.4077 24.7443C35.9796 24.4943 35.6425 24.125 35.3963 23.6364C35.1539 23.1477 35.0327 22.5436 35.0327 21.8239V16.2727H36.7315V21.6193C36.7315 22.214 36.8963 22.6875 37.2259 23.0398C37.5554 23.392 37.9834 23.5682 38.5099 23.5682C38.8281 23.5682 39.1444 23.4886 39.4588 23.3295C39.777 23.1705 40.0402 22.9299 40.2486 22.608C40.4607 22.286 40.5649 21.8769 40.5611 21.3807ZM51.0881 18.4034L49.5483 18.6761C49.4839 18.4792 49.3816 18.2917 49.2415 18.1136C49.1051 17.9356 48.9195 17.7898 48.6847 17.6761C48.4498 17.5625 48.1563 17.5057 47.804 17.5057C47.3229 17.5057 46.9214 17.6136 46.5994 17.8295C46.2775 18.0417 46.1165 18.3163 46.1165 18.6534C46.1165 18.9451 46.2244 19.1799 46.4403 19.358C46.6563 19.536 47.0047 19.6818 47.4858 19.7955L48.8722 20.1136C49.6752 20.2992 50.2737 20.5852 50.6676 20.9716C51.0616 21.358 51.2585 21.8598 51.2585 22.4773C51.2585 23 51.107 23.4659 50.804 23.875C50.5047 24.2803 50.0862 24.5985 49.5483 24.8295C49.0142 25.0606 48.3949 25.1761 47.6903 25.1761C46.7131 25.1761 45.9157 24.9678 45.2983 24.5511C44.6809 24.1307 44.3021 23.5341 44.1619 22.7614L45.804 22.5114C45.9063 22.9394 46.1165 23.2633 46.4347 23.483C46.7528 23.6989 47.1676 23.8068 47.679 23.8068C48.2358 23.8068 48.6809 23.6913 49.0142 23.4602C49.3475 23.2254 49.5142 22.9394 49.5142 22.6023C49.5142 22.3295 49.4119 22.1004 49.2074 21.9148C49.0066 21.7292 48.6979 21.589 48.2812 21.4943L46.804 21.1705C45.9896 20.9848 45.3873 20.6894 44.9972 20.2841C44.6108 19.8788 44.4176 19.3655 44.4176 18.7443C44.4176 18.2292 44.5616 17.7784 44.8494 17.392C45.1373 17.0057 45.535 16.7045 46.0426 16.4886C46.5502 16.2689 47.1316 16.1591 47.7869 16.1591C48.7301 16.1591 49.4725 16.3636 50.0142 16.7727C50.5559 17.178 50.9138 17.7216 51.0881 18.4034ZM57.2003 16.2727V17.6364H52.4332V16.2727H57.2003ZM53.7116 14.1818H55.4105V22.4375C55.4105 22.767 55.4598 23.0152 55.5582 23.1818C55.6567 23.3447 55.7836 23.4564 55.9389 23.517C56.098 23.5739 56.2704 23.6023 56.456 23.6023C56.5923 23.6023 56.7116 23.5928 56.8139 23.5739C56.9162 23.5549 56.9957 23.5398 57.0526 23.5284L57.3594 24.9318C57.2609 24.9697 57.1207 25.0076 56.9389 25.0455C56.7571 25.0871 56.5298 25.1098 56.2571 25.1136C55.8101 25.1212 55.3935 25.0417 55.0071 24.875C54.6207 24.7083 54.3082 24.4508 54.0696 24.1023C53.831 23.7538 53.7116 23.3163 53.7116 22.7898V14.1818ZM59.0795 25V16.2727H60.7216V17.6591H60.8125C60.9716 17.1894 61.2519 16.8201 61.6534 16.5511C62.0587 16.2784 62.517 16.142 63.0284 16.142C63.1345 16.142 63.2595 16.1458 63.4034 16.1534C63.5511 16.161 63.6667 16.1705 63.75 16.1818V17.8068C63.6818 17.7879 63.5606 17.767 63.3864 17.7443C63.2121 17.7178 63.0379 17.7045 62.8636 17.7045C62.4621 17.7045 62.1042 17.7898 61.7898 17.9602C61.4792 18.1269 61.233 18.3598 61.0511 18.6591C60.8693 18.9545 60.7784 19.2917 60.7784 19.6705V25H59.0795ZM65.2202 25V16.2727H66.919V25H65.2202ZM66.0781 14.9261C65.7827 14.9261 65.5289 14.8277 65.3168 14.6307C65.1084 14.4299 65.0043 14.1913 65.0043 13.9148C65.0043 13.6345 65.1084 13.3958 65.3168 13.1989C65.5289 12.9981 65.7827 12.8977 66.0781 12.8977C66.3736 12.8977 66.6255 12.9981 66.8338 13.1989C67.0459 13.3958 67.152 13.6345 67.152 13.9148C67.152 14.1913 67.0459 14.4299 66.8338 14.6307C66.6255 14.8277 66.3736 14.9261 66.0781 14.9261ZM72.9659 25.1761C72.1061 25.1761 71.3655 24.9924 70.7443 24.625C70.1269 24.2538 69.6496 23.733 69.3125 23.0625C68.9792 22.3883 68.8125 21.5985 68.8125 20.6932C68.8125 19.7992 68.9792 19.0114 69.3125 18.3295C69.6496 17.6477 70.1193 17.1155 70.7216 16.733C71.3277 16.3504 72.036 16.1591 72.8466 16.1591C73.339 16.1591 73.8163 16.2405 74.2784 16.4034C74.7405 16.5663 75.1553 16.822 75.5227 17.1705C75.8902 17.5189 76.1799 17.9716 76.392 18.5284C76.6042 19.0814 76.7102 19.7538 76.7102 20.5455V21.1477H69.7727V19.875H75.0455C75.0455 19.428 74.9545 19.0322 74.7727 18.6875C74.5909 18.339 74.3352 18.0644 74.0057 17.8636C73.6799 17.6629 73.2973 17.5625 72.858 17.5625C72.3807 17.5625 71.964 17.6799 71.608 17.9148C71.2557 18.1458 70.983 18.4489 70.7898 18.8239C70.6004 19.1951 70.5057 19.5985 70.5057 20.0341V21.0284C70.5057 21.6117 70.608 22.108 70.8125 22.517C71.0208 22.9261 71.3106 23.2386 71.6818 23.4545C72.053 23.6667 72.4867 23.7727 72.983 23.7727C73.3049 23.7727 73.5985 23.7273 73.8636 23.6364C74.1288 23.5417 74.358 23.4015 74.5511 23.2159C74.7443 23.0303 74.892 22.8011 74.9943 22.5284L76.6023 22.8182C76.4735 23.2917 76.2424 23.7064 75.9091 24.0625C75.5795 24.4148 75.1648 24.6894 74.6648 24.8864C74.1686 25.0795 73.6023 25.1761 72.9659 25.1761ZM85.1349 18.4034L83.5952 18.6761C83.5308 18.4792 83.4285 18.2917 83.2884 18.1136C83.152 17.9356 82.9664 17.7898 82.7315 17.6761C82.4967 17.5625 82.2031 17.5057 81.8509 17.5057C81.3698 17.5057 80.9683 17.6136 80.6463 17.8295C80.3243 18.0417 80.1634 18.3163 80.1634 18.6534C80.1634 18.9451 80.2713 19.1799 80.4872 19.358C80.7031 19.536 81.0516 19.6818 81.5327 19.7955L82.919 20.1136C83.7221 20.2992 84.3205 20.5852 84.7145 20.9716C85.1084 21.358 85.3054 21.8598 85.3054 22.4773C85.3054 23 85.1539 23.4659 84.8509 23.875C84.5516 24.2803 84.133 24.5985 83.5952 24.8295C83.0611 25.0606 82.4418 25.1761 81.7372 25.1761C80.7599 25.1761 79.9626 24.9678 79.3452 24.5511C78.7277 24.1307 78.349 23.5341 78.2088 22.7614L79.8509 22.5114C79.9531 22.9394 80.1634 23.2633 80.4815 23.483C80.7997 23.6989 81.2145 23.8068 81.7259 23.8068C82.2827 23.8068 82.7277 23.6913 83.0611 23.4602C83.3944 23.2254 83.5611 22.9394 83.5611 22.6023C83.5611 22.3295 83.4588 22.1004 83.2543 21.9148C83.0535 21.7292 82.7448 21.589 82.3281 21.4943L80.8509 21.1705C80.0365 20.9848 79.4342 20.6894 79.044 20.2841C78.6577 19.8788 78.4645 19.3655 78.4645 18.7443C78.4645 18.2292 78.6084 17.7784 78.8963 17.392C79.1842 17.0057 79.5819 16.7045 80.0895 16.4886C80.5971 16.2689 81.1785 16.1591 81.8338 16.1591C82.777 16.1591 83.5194 16.3636 84.0611 16.7727C84.6027 17.178 84.9607 17.7216 85.1349 18.4034Z" fill="white"/>
</svg>
