<svg width="140" height="39" viewBox="0 0 140 39" fill="none" xmlns="http://www.w3.org/2000/svg">
<path d="M21.3864 19.1818C21.3864 20.4242 21.1591 21.4924 20.7045 22.3864C20.25 23.2765 19.6269 23.9621 18.8352 24.4432C18.0473 24.9205 17.1515 25.1591 16.1477 25.1591C15.1402 25.1591 14.2405 24.9205 13.4489 24.4432C12.661 23.9621 12.0398 23.2746 11.5852 22.3807C11.1307 21.4867 10.9034 20.4205 10.9034 19.1818C10.9034 17.9394 11.1307 16.8731 11.5852 15.983C12.0398 15.089 12.661 14.4034 13.4489 13.9261C14.2405 13.4451 15.1402 13.2045 16.1477 13.2045C17.1515 13.2045 18.0473 13.4451 18.8352 13.9261C19.6269 14.4034 20.25 15.089 20.7045 15.983C21.1591 16.8731 21.3864 17.9394 21.3864 19.1818ZM19.6477 19.1818C19.6477 18.2348 19.4943 17.4375 19.1875 16.7898C18.8845 16.1383 18.4678 15.6458 17.9375 15.3125C17.411 14.9754 16.8144 14.8068 16.1477 14.8068C15.4773 14.8068 14.8788 14.9754 14.3523 15.3125C13.8258 15.6458 13.4091 16.1383 13.1023 16.7898C12.7992 17.4375 12.6477 18.2348 12.6477 19.1818C12.6477 20.1288 12.7992 20.928 13.1023 21.5795C13.4091 22.2273 13.8258 22.7197 14.3523 23.0568C14.8788 23.3902 15.4773 23.5568 16.1477 23.5568C16.8144 23.5568 17.411 23.3902 17.9375 23.0568C18.4678 22.7197 18.8845 22.2273 19.1875 21.5795C19.4943 20.928 19.6477 20.1288 19.6477 19.1818ZM28.9673 21.3807V16.2727H30.6719V25H29.0014V23.4886H28.9105C28.7098 23.9545 28.3878 24.3428 27.9446 24.6534C27.5052 24.9602 26.9579 25.1136 26.3026 25.1136C25.742 25.1136 25.2457 24.9905 24.8139 24.7443C24.3859 24.4943 24.0488 24.125 23.8026 23.6364C23.5601 23.1477 23.4389 22.5436 23.4389 21.8239V16.2727H25.1378V21.6193C25.1378 22.214 25.3026 22.6875 25.6321 23.0398C25.9616 23.392 26.3897 23.5682 26.9162 23.5682C27.2344 23.5682 27.5507 23.4886 27.8651 23.3295C28.1832 23.1705 28.4465 22.9299 28.6548 22.608C28.867 22.286 28.9711 21.8769 28.9673 21.3807ZM32.9545 25V16.2727H34.5966V17.6591H34.6875C34.8466 17.1894 35.1269 16.8201 35.5284 16.5511C35.9337 16.2784 36.392 16.142 36.9034 16.142C37.0095 16.142 37.1345 16.1458 37.2784 16.1534C37.4261 16.161 37.5417 16.1705 37.625 16.1818V17.8068C37.5568 17.7879 37.4356 17.767 37.2614 17.7443C37.0871 17.7178 36.9129 17.7045 36.7386 17.7045C36.3371 17.7045 35.9792 17.7898 35.6648 17.9602C35.3542 18.1269 35.108 18.3598 34.9261 18.6591C34.7443 18.9545 34.6534 19.2917 34.6534 19.6705V25H32.9545ZM49.8125 16.4205C49.7519 15.8826 49.5019 15.4659 49.0625 15.1705C48.6231 14.8712 48.0701 14.7216 47.4034 14.7216C46.9261 14.7216 46.5133 14.7973 46.1648 14.9489C45.8163 15.0966 45.5455 15.3011 45.3523 15.5625C45.1629 15.8201 45.0682 16.1136 45.0682 16.4432C45.0682 16.7197 45.1326 16.9583 45.2614 17.1591C45.3939 17.3598 45.5663 17.5284 45.7784 17.6648C45.9943 17.7973 46.2254 17.9091 46.4716 18C46.7178 18.0871 46.9545 18.1591 47.1818 18.2159L48.3182 18.5114C48.6894 18.6023 49.0701 18.7254 49.4602 18.8807C49.8504 19.036 50.2121 19.2405 50.5455 19.4943C50.8788 19.7481 51.1477 20.0625 51.3523 20.4375C51.5606 20.8125 51.6648 21.2614 51.6648 21.7841C51.6648 22.4432 51.4943 23.0284 51.1534 23.5398C50.8163 24.0511 50.3258 24.4545 49.6818 24.75C49.0417 25.0455 48.267 25.1932 47.358 25.1932C46.4867 25.1932 45.733 25.0549 45.0966 24.7784C44.4602 24.5019 43.9621 24.1098 43.6023 23.6023C43.2424 23.0909 43.0436 22.4848 43.0057 21.7841H44.767C44.8011 22.2045 44.9375 22.5549 45.1761 22.8352C45.4186 23.1117 45.7273 23.3182 46.1023 23.4545C46.4811 23.5871 46.8958 23.6534 47.3466 23.6534C47.8428 23.6534 48.2841 23.5758 48.6705 23.4205C49.0606 23.2614 49.3674 23.0417 49.5909 22.7614C49.8144 22.4773 49.9261 22.1458 49.9261 21.767C49.9261 21.4223 49.8277 21.1402 49.6307 20.9205C49.4375 20.7008 49.1742 20.5189 48.8409 20.375C48.5114 20.2311 48.1383 20.1042 47.7216 19.9943L46.3466 19.6193C45.4148 19.3655 44.6761 18.9924 44.1307 18.5C43.589 18.0076 43.3182 17.3561 43.3182 16.5455C43.3182 15.875 43.5 15.2898 43.8636 14.7898C44.2273 14.2898 44.7197 13.9015 45.3409 13.625C45.9621 13.3447 46.6629 13.2045 47.4432 13.2045C48.2311 13.2045 48.9261 13.3428 49.5284 13.6193C50.1345 13.8958 50.6117 14.2765 50.9602 14.7614C51.3087 15.2424 51.4905 15.7955 51.5057 16.4205H49.8125ZM57.3878 25.1761C56.5279 25.1761 55.7874 24.9924 55.1662 24.625C54.5488 24.2538 54.0715 23.733 53.7344 23.0625C53.401 22.3883 53.2344 21.5985 53.2344 20.6932C53.2344 19.7992 53.401 19.0114 53.7344 18.3295C54.0715 17.6477 54.5412 17.1155 55.1435 16.733C55.7495 16.3504 56.4579 16.1591 57.2685 16.1591C57.7609 16.1591 58.2382 16.2405 58.7003 16.4034C59.1624 16.5663 59.5772 16.822 59.9446 17.1705C60.312 17.5189 60.6018 17.9716 60.8139 18.5284C61.026 19.0814 61.1321 19.7538 61.1321 20.5455V21.1477H54.1946V19.875H59.4673C59.4673 19.428 59.3764 19.0322 59.1946 18.6875C59.0128 18.339 58.7571 18.0644 58.4276 17.8636C58.1018 17.6629 57.7192 17.5625 57.2798 17.5625C56.8026 17.5625 56.3859 17.6799 56.0298 17.9148C55.6776 18.1458 55.4048 18.4489 55.2116 18.8239C55.0223 19.1951 54.9276 19.5985 54.9276 20.0341V21.0284C54.9276 21.6117 55.0298 22.108 55.2344 22.517C55.4427 22.9261 55.7325 23.2386 56.1037 23.4545C56.4749 23.6667 56.9086 23.7727 57.4048 23.7727C57.7268 23.7727 58.0204 23.7273 58.2855 23.6364C58.5507 23.5417 58.7798 23.4015 58.973 23.2159C59.1662 23.0303 59.3139 22.8011 59.4162 22.5284L61.0241 22.8182C60.8954 23.2917 60.6643 23.7064 60.331 24.0625C60.0014 24.4148 59.5866 24.6894 59.0866 24.8864C58.5904 25.0795 58.0241 25.1761 57.3878 25.1761ZM63.017 25V16.2727H64.6591V17.6591H64.75C64.9091 17.1894 65.1894 16.8201 65.5909 16.5511C65.9962 16.2784 66.4545 16.142 66.9659 16.142C67.072 16.142 67.197 16.1458 67.3409 16.1534C67.4886 16.161 67.6042 16.1705 67.6875 16.1818V17.8068C67.6193 17.7879 67.4981 17.767 67.3239 17.7443C67.1496 17.7178 66.9754 17.7045 66.8011 17.7045C66.3996 17.7045 66.0417 17.7898 65.7273 17.9602C65.4167 18.1269 65.1705 18.3598 64.9886 18.6591C64.8068 18.9545 64.7159 19.2917 64.7159 19.6705V25H63.017ZM76.8892 16.2727L73.7244 25H71.9062L68.7358 16.2727H70.5597L72.7699 22.9886H72.8608L75.0653 16.2727H76.8892ZM78.4858 25V16.2727H80.1847V25H78.4858ZM79.3438 14.9261C79.0483 14.9261 78.7945 14.8277 78.5824 14.6307C78.3741 14.4299 78.2699 14.1913 78.2699 13.9148C78.2699 13.6345 78.3741 13.3958 78.5824 13.1989C78.7945 12.9981 79.0483 12.8977 79.3438 12.8977C79.6392 12.8977 79.8911 12.9981 80.0994 13.1989C80.3116 13.3958 80.4176 13.6345 80.4176 13.9148C80.4176 14.1913 80.3116 14.4299 80.0994 14.6307C79.8911 14.8277 79.6392 14.9261 79.3438 14.9261ZM86.1463 25.1761C85.3016 25.1761 84.5743 24.9848 83.9645 24.6023C83.3584 24.2159 82.8925 23.6837 82.5668 23.0057C82.241 22.3277 82.0781 21.5511 82.0781 20.6761C82.0781 19.7898 82.2448 19.0076 82.5781 18.3295C82.9115 17.6477 83.3812 17.1155 83.9872 16.733C84.5933 16.3504 85.3073 16.1591 86.1293 16.1591C86.7921 16.1591 87.383 16.2822 87.902 16.5284C88.4209 16.7708 88.8395 17.1117 89.1577 17.5511C89.4796 17.9905 89.6709 18.5038 89.7315 19.0909H88.0781C87.9872 18.6818 87.7789 18.3295 87.4531 18.0341C87.1312 17.7386 86.6993 17.5909 86.1577 17.5909C85.6842 17.5909 85.2694 17.7159 84.9134 17.9659C84.5611 18.2121 84.2865 18.5644 84.0895 19.0227C83.8925 19.4773 83.794 20.0152 83.794 20.6364C83.794 21.2727 83.8906 21.822 84.0838 22.2841C84.277 22.7462 84.5497 23.1042 84.902 23.358C85.258 23.6117 85.6766 23.7386 86.1577 23.7386C86.4796 23.7386 86.7713 23.6799 87.0327 23.5625C87.2978 23.4413 87.5194 23.2689 87.6974 23.0455C87.8793 22.822 88.0062 22.553 88.0781 22.2386H89.7315C89.6709 22.803 89.4872 23.3068 89.1804 23.75C88.8736 24.1932 88.4626 24.5417 87.9474 24.7955C87.4361 25.0492 86.8357 25.1761 86.1463 25.1761ZM95.3097 25.1761C94.4498 25.1761 93.7093 24.9924 93.0881 24.625C92.4706 24.2538 91.9934 23.733 91.6562 23.0625C91.3229 22.3883 91.1562 21.5985 91.1562 20.6932C91.1562 19.7992 91.3229 19.0114 91.6562 18.3295C91.9934 17.6477 92.4631 17.1155 93.0653 16.733C93.6714 16.3504 94.3797 16.1591 95.1903 16.1591C95.6828 16.1591 96.16 16.2405 96.6222 16.4034C97.0843 16.5663 97.4991 16.822 97.8665 17.1705C98.2339 17.5189 98.5237 17.9716 98.7358 18.5284C98.9479 19.0814 99.054 19.7538 99.054 20.5455V21.1477H92.1165V19.875H97.3892C97.3892 19.428 97.2983 19.0322 97.1165 18.6875C96.9347 18.339 96.679 18.0644 96.3494 17.8636C96.0237 17.6629 95.6411 17.5625 95.2017 17.5625C94.7244 17.5625 94.3078 17.6799 93.9517 17.9148C93.5994 18.1458 93.3267 18.4489 93.1335 18.8239C92.9441 19.1951 92.8494 19.5985 92.8494 20.0341V21.0284C92.8494 21.6117 92.9517 22.108 93.1562 22.517C93.3646 22.9261 93.6544 23.2386 94.0256 23.4545C94.3968 23.6667 94.8305 23.7727 95.3267 23.7727C95.6487 23.7727 95.9422 23.7273 96.2074 23.6364C96.4725 23.5417 96.7017 23.4015 96.8949 23.2159C97.0881 23.0303 97.2358 22.8011 97.3381 22.5284L98.946 22.8182C98.8172 23.2917 98.5862 23.7064 98.2528 24.0625C97.9233 24.4148 97.5085 24.6894 97.0085 24.8864C96.5123 25.0795 95.946 25.1761 95.3097 25.1761ZM107.479 18.4034L105.939 18.6761C105.875 18.4792 105.772 18.2917 105.632 18.1136C105.496 17.9356 105.31 17.7898 105.075 17.6761C104.84 17.5625 104.547 17.5057 104.195 17.5057C103.714 17.5057 103.312 17.6136 102.99 17.8295C102.668 18.0417 102.507 18.3163 102.507 18.6534C102.507 18.9451 102.615 19.1799 102.831 19.358C103.047 19.536 103.395 19.6818 103.876 19.7955L105.263 20.1136C106.066 20.2992 106.664 20.5852 107.058 20.9716C107.452 21.358 107.649 21.8598 107.649 22.4773C107.649 23 107.498 23.4659 107.195 23.875C106.895 24.2803 106.477 24.5985 105.939 24.8295C105.405 25.0606 104.786 25.1761 104.081 25.1761C103.104 25.1761 102.306 24.9678 101.689 24.5511C101.071 24.1307 100.693 23.5341 100.553 22.7614L102.195 22.5114C102.297 22.9394 102.507 23.2633 102.825 23.483C103.143 23.6989 103.558 23.8068 104.07 23.8068C104.626 23.8068 105.071 23.6913 105.405 23.4602C105.738 23.2254 105.905 22.9394 105.905 22.6023C105.905 22.3295 105.803 22.1004 105.598 21.9148C105.397 21.7292 105.089 21.589 104.672 21.4943L103.195 21.1705C102.38 20.9848 101.778 20.6894 101.388 20.2841C101.001 19.8788 100.808 19.3655 100.808 18.7443C100.808 18.2292 100.952 17.7784 101.24 17.392C101.528 17.0057 101.926 16.7045 102.433 16.4886C102.941 16.2689 103.522 16.1591 104.178 16.1591C105.121 16.1591 105.863 16.3636 106.405 16.7727C106.946 17.178 107.304 17.7216 107.479 18.4034Z" fill="white"/>
<path d="M125.366 23.5C124.981 24.1667 124.019 24.1667 123.634 23.5L120.603 18.25C120.218 17.5833 120.699 16.75 121.469 16.75L127.531 16.75C128.301 16.75 128.782 17.5833 128.397 18.25L125.366 23.5Z" fill="white"/>
</svg>
