<svg width="138" height="54" viewBox="0 0 138 54" fill="none" xmlns="http://www.w3.org/2000/svg">
<rect width="138" height="54" rx="5" fill="#1399D9"/>
<path d="M28.679 24.1847H26.4631C26.3778 23.7112 26.2192 23.2945 25.9872 22.9347C25.7552 22.5748 25.4711 22.2694 25.1349 22.0185C24.7988 21.7675 24.4223 21.5781 24.0057 21.4503C23.5938 21.3224 23.1558 21.2585 22.6918 21.2585C21.8537 21.2585 21.1032 21.4692 20.4403 21.8906C19.7822 22.312 19.2614 22.9299 18.8778 23.7443C18.4991 24.5587 18.3097 25.553 18.3097 26.7273C18.3097 27.911 18.4991 28.91 18.8778 29.7244C19.2614 30.5388 19.7846 31.1544 20.4474 31.571C21.1103 31.9877 21.8561 32.196 22.6847 32.196C23.1439 32.196 23.5795 32.1345 23.9915 32.0114C24.4081 31.8835 24.7846 31.6965 25.1207 31.4503C25.4569 31.2041 25.741 30.9034 25.973 30.5483C26.2098 30.1884 26.3731 29.7765 26.4631 29.3125L28.679 29.3196C28.5606 30.0346 28.331 30.6927 27.9901 31.294C27.6539 31.8906 27.2206 32.4067 26.6903 32.8423C26.1648 33.2732 25.5634 33.607 24.8864 33.8438C24.2093 34.0805 23.4706 34.1989 22.6705 34.1989C21.411 34.1989 20.2888 33.9006 19.304 33.304C18.3191 32.7027 17.5426 31.8433 16.9744 30.7259C16.411 29.6084 16.1293 28.2756 16.1293 26.7273C16.1293 25.1742 16.4134 23.8414 16.9815 22.7287C17.5497 21.6113 18.3262 20.7543 19.3111 20.1577C20.2959 19.5563 21.4157 19.2557 22.6705 19.2557C23.4422 19.2557 24.1619 19.367 24.8295 19.5895C25.5019 19.8073 26.1056 20.1293 26.6406 20.5554C27.1757 20.9768 27.6184 21.4929 27.9688 22.1037C28.3191 22.7098 28.5559 23.4034 28.679 24.1847ZM35.7298 34.2202C34.707 34.2202 33.8145 33.9858 33.0522 33.517C32.2899 33.0483 31.698 32.3925 31.2766 31.5497C30.8552 30.7069 30.6445 29.7221 30.6445 28.5952C30.6445 27.4635 30.8552 26.474 31.2766 25.6264C31.698 24.7789 32.2899 24.1207 33.0522 23.652C33.8145 23.1832 34.707 22.9489 35.7298 22.9489C36.7525 22.9489 37.645 23.1832 38.4073 23.652C39.1696 24.1207 39.7615 24.7789 40.1829 25.6264C40.6043 26.474 40.815 27.4635 40.815 28.5952C40.815 29.7221 40.6043 30.7069 40.1829 31.5497C39.7615 32.3925 39.1696 33.0483 38.4073 33.517C37.645 33.9858 36.7525 34.2202 35.7298 34.2202ZM35.7369 32.4375C36.3997 32.4375 36.949 32.2623 37.3846 31.9119C37.8202 31.5616 38.1422 31.0952 38.3505 30.5128C38.5636 29.9304 38.6701 29.2888 38.6701 28.5881C38.6701 27.892 38.5636 27.2528 38.3505 26.6705C38.1422 26.0833 37.8202 25.6122 37.3846 25.2571C36.949 24.902 36.3997 24.7244 35.7369 24.7244C35.0692 24.7244 34.5153 24.902 34.0749 25.2571C33.6393 25.6122 33.315 26.0833 33.1019 26.6705C32.8936 27.2528 32.7894 27.892 32.7894 28.5881C32.7894 29.2888 32.8936 29.9304 33.1019 30.5128C33.315 31.0952 33.6393 31.5616 34.0749 31.9119C34.5153 32.2623 35.0692 32.4375 35.7369 32.4375ZM45.3089 27.5227V34H43.1854V23.0909H45.2237V24.8665H45.3587C45.6096 24.2888 46.0026 23.8248 46.5376 23.4744C47.0774 23.1241 47.7569 22.9489 48.576 22.9489C49.3194 22.9489 49.9704 23.1051 50.5291 23.4176C51.0878 23.7254 51.5211 24.1847 51.8288 24.7955C52.1366 25.4062 52.2905 26.1615 52.2905 27.0611V34H50.1669V27.3168C50.1669 26.526 49.9609 25.9081 49.549 25.4631C49.1371 25.0133 48.5713 24.7884 47.8516 24.7884C47.3591 24.7884 46.9212 24.8949 46.5376 25.108C46.1589 25.321 45.8582 25.6335 45.6357 26.0455C45.4179 26.4527 45.3089 26.9451 45.3089 27.5227ZM60.2308 23.0909V24.7955H54.272V23.0909H60.2308ZM55.87 20.4773H57.9936V30.7969C57.9936 31.2088 58.0552 31.5189 58.1783 31.7273C58.3014 31.9309 58.46 32.0705 58.6541 32.1463C58.853 32.2173 59.0684 32.2528 59.3004 32.2528C59.4709 32.2528 59.62 32.241 59.7479 32.2173C59.8757 32.1937 59.9751 32.1747 60.0462 32.1605L60.4297 33.9148C60.3066 33.9621 60.1314 34.0095 59.9041 34.0568C59.6768 34.1089 59.3928 34.1373 59.0518 34.142C58.4931 34.1515 57.9723 34.0521 57.4893 33.8438C57.0064 33.6354 56.6158 33.3134 56.3175 32.8778C56.0192 32.4422 55.87 31.8954 55.87 31.2372V20.4773ZM65.7546 34.2415C65.0633 34.2415 64.4383 34.1136 63.8796 33.858C63.3209 33.5975 62.8782 33.2211 62.5515 32.7287C62.2295 32.2363 62.0685 31.6326 62.0685 30.9176C62.0685 30.3021 62.1869 29.7955 62.4237 29.3977C62.6604 29 62.98 28.6851 63.3825 28.4531C63.7849 28.2211 64.2347 28.0459 64.7319 27.9276C65.229 27.8092 65.7357 27.7192 66.2518 27.6577C66.9052 27.5819 67.4355 27.5204 67.8427 27.473C68.2499 27.4209 68.5458 27.3381 68.7305 27.2244C68.9151 27.1108 69.0075 26.9261 69.0075 26.6705V26.6207C69.0075 26.0005 68.8323 25.5199 68.4819 25.179C68.1362 24.8381 67.6201 24.6676 66.9336 24.6676C66.2186 24.6676 65.6552 24.8262 65.2433 25.1435C64.8361 25.456 64.5543 25.804 64.3981 26.1875L62.4023 25.733C62.6391 25.0701 62.9847 24.535 63.4393 24.1278C63.8986 23.7159 64.4265 23.4176 65.0231 23.233C65.6197 23.0436 66.247 22.9489 66.9052 22.9489C67.3408 22.9489 67.8024 23.0009 68.2901 23.1051C68.7826 23.2045 69.2418 23.3892 69.668 23.6591C70.0988 23.929 70.4516 24.3149 70.7262 24.8168C71.0008 25.3139 71.1381 25.9602 71.1381 26.7557V34H69.0643V32.5085H68.979C68.8417 32.7831 68.6358 33.053 68.3612 33.3182C68.0865 33.5833 67.7338 33.8035 67.3029 33.9787C66.872 34.1539 66.3559 34.2415 65.7546 34.2415ZM66.2163 32.5369C66.8034 32.5369 67.3053 32.4209 67.7219 32.1889C68.1433 31.9569 68.463 31.6539 68.6808 31.2798C68.9033 30.901 69.0146 30.4962 69.0146 30.0653V28.6591C68.9388 28.7348 68.792 28.8059 68.5742 28.8722C68.3612 28.9337 68.1173 28.9882 67.8427 29.0355C67.5681 29.0781 67.3005 29.1184 67.0401 29.1562C66.7797 29.1894 66.5619 29.2178 66.3867 29.2415C65.9748 29.2936 65.5984 29.3812 65.2575 29.5043C64.9213 29.6274 64.6514 29.8049 64.4478 30.0369C64.2489 30.2642 64.1495 30.5672 64.1495 30.946C64.1495 31.4716 64.3436 31.8693 64.7319 32.1392C65.1201 32.4044 65.6149 32.5369 66.2163 32.5369ZM78.5618 34.2202C77.5059 34.2202 76.5968 33.9811 75.8345 33.5028C75.0769 33.0199 74.4946 32.3546 74.0874 31.5071C73.6802 30.6596 73.4766 29.6889 73.4766 28.5952C73.4766 27.4872 73.6849 26.5095 74.1016 25.6619C74.5182 24.8097 75.1054 24.1444 75.8629 23.6662C76.6205 23.188 77.513 22.9489 78.5405 22.9489C79.3691 22.9489 80.1077 23.1027 80.7564 23.4105C81.4051 23.7135 81.9283 24.1397 82.326 24.6889C82.7285 25.2382 82.9676 25.8797 83.0433 26.6136H80.9766C80.8629 26.1023 80.6025 25.6619 80.1953 25.2926C79.7929 24.9233 79.2531 24.7386 78.576 24.7386C77.9841 24.7386 77.4657 24.8949 77.0206 25.2074C76.5803 25.5152 76.237 25.9555 75.9908 26.5284C75.7446 27.0966 75.6214 27.7689 75.6214 28.5455C75.6214 29.3409 75.7422 30.0275 75.9837 30.6051C76.2251 31.1828 76.5661 31.6302 77.0064 31.9474C77.4515 32.2647 77.9747 32.4233 78.576 32.4233C78.9785 32.4233 79.343 32.3499 79.6697 32.2031C80.0012 32.0516 80.2782 31.8362 80.5007 31.5568C80.728 31.2775 80.8866 30.9413 80.9766 30.5483H83.0433C82.9676 31.2538 82.7379 31.8835 82.3544 32.4375C81.9709 32.9915 81.4571 33.4271 80.8132 33.7443C80.174 34.0616 79.4235 34.2202 78.5618 34.2202ZM90.4066 23.0909V24.7955H84.4478V23.0909H90.4066ZM86.0458 20.4773H88.1694V30.7969C88.1694 31.2088 88.2309 31.5189 88.354 31.7273C88.4772 31.9309 88.6358 32.0705 88.8299 32.1463C89.0288 32.2173 89.2442 32.2528 89.4762 32.2528C89.6467 32.2528 89.7958 32.241 89.9237 32.2173C90.0515 32.1937 90.1509 32.1747 90.2219 32.1605L90.6055 33.9148C90.4824 33.9621 90.3072 34.0095 90.0799 34.0568C89.8526 34.1089 89.5685 34.1373 89.2276 34.142C88.6689 34.1515 88.1481 34.0521 87.6651 33.8438C87.1822 33.6354 86.7915 33.3134 86.4933 32.8778C86.195 32.4422 86.0458 31.8954 86.0458 31.2372V20.4773ZM107.573 19.4545H109.775V29.0213C109.775 30.0393 109.535 30.9413 109.057 31.7273C108.579 32.5085 107.907 33.1241 107.04 33.5739C106.174 34.0189 105.158 34.2415 103.993 34.2415C102.833 34.2415 101.82 34.0189 100.953 33.5739C100.087 33.1241 99.4147 32.5085 98.9364 31.7273C98.4582 30.9413 98.2191 30.0393 98.2191 29.0213V19.4545H100.414V28.8438C100.414 29.5019 100.558 30.0866 100.847 30.598C101.141 31.1094 101.555 31.5118 102.09 31.8054C102.625 32.0942 103.259 32.2386 103.993 32.2386C104.732 32.2386 105.369 32.0942 105.904 31.8054C106.444 31.5118 106.855 31.1094 107.14 30.598C107.428 30.0866 107.573 29.5019 107.573 28.8438V19.4545ZM120.969 25.7543L119.045 26.0952C118.964 25.849 118.836 25.6146 118.661 25.392C118.491 25.1695 118.259 24.9872 117.965 24.8452C117.672 24.7031 117.305 24.6321 116.864 24.6321C116.263 24.6321 115.761 24.767 115.359 25.0369C114.956 25.3021 114.755 25.6454 114.755 26.0668C114.755 26.4313 114.89 26.7249 115.16 26.9474C115.43 27.17 115.865 27.3523 116.467 27.4943L118.2 27.892C119.203 28.1241 119.951 28.4815 120.444 28.9645C120.936 29.4474 121.183 30.0748 121.183 30.8466C121.183 31.5 120.993 32.0824 120.614 32.5938C120.24 33.1004 119.717 33.4981 119.045 33.7869C118.377 34.0758 117.603 34.2202 116.722 34.2202C115.501 34.2202 114.504 33.9598 113.732 33.4389C112.96 32.9134 112.487 32.1676 112.312 31.2017L114.364 30.8892C114.492 31.4242 114.755 31.8291 115.153 32.1037C115.55 32.3736 116.069 32.5085 116.708 32.5085C117.404 32.5085 117.96 32.3641 118.377 32.0753C118.794 31.7817 119.002 31.4242 119.002 31.0028C119.002 30.6619 118.874 30.3755 118.619 30.1435C118.368 29.9115 117.982 29.7363 117.461 29.6179L115.614 29.2131C114.596 28.9811 113.844 28.6117 113.356 28.1051C112.873 27.5985 112.631 26.9569 112.631 26.1804C112.631 25.5365 112.811 24.973 113.171 24.4901C113.531 24.0071 114.028 23.6307 114.663 23.3608C115.297 23.0862 116.024 22.9489 116.843 22.9489C118.022 22.9489 118.95 23.2045 119.627 23.7159C120.304 24.2225 120.752 24.902 120.969 25.7543Z" fill="white"/>
</svg>
