<svg width="18" height="15" viewBox="0 0 18 15" fill="none" xmlns="http://www.w3.org/2000/svg">
<path d="M15.202 0.662803C15.5131 0.373569 15.927 0.213669 16.3565 0.216843C16.7859 0.220017 17.1973 0.386017 17.5038 0.679814C17.8104 0.973612 17.9881 1.37223 17.9994 1.79155C18.0108 2.21087 17.8549 2.6181 17.5647 2.92731L8.75442 13.6891C8.60293 13.8485 8.42008 13.9764 8.21682 14.0652C8.01356 14.1539 7.79406 14.2018 7.57144 14.2058C7.34882 14.2098 7.12766 14.17 6.92117 14.0886C6.71469 14.0072 6.52712 13.886 6.36969 13.7322L0.527089 8.02568C0.364382 7.8776 0.233879 7.69903 0.143366 7.50062C0.0528517 7.3022 0.00418102 7.08802 0.000257728 6.87083C-0.00366557 6.65365 0.037239 6.43792 0.12053 6.23651C0.203822 6.03511 0.327794 5.85215 0.485051 5.69855C0.642308 5.54496 0.829628 5.42387 1.03584 5.34252C1.24205 5.26117 1.46292 5.22121 1.68528 5.22505C1.90764 5.22888 2.12693 5.27642 2.33008 5.36482C2.53322 5.45323 2.71605 5.58069 2.86766 5.73961L7.4914 10.2535L15.1601 0.71025C15.1739 0.693646 15.1886 0.677805 15.2042 0.662803H15.202Z" fill="#77F2A1"/>
</svg>
